<svg width="28" height="29" viewBox="0 0 28 29" fill="none" xmlns="http://www.w3.org/2000/svg">
<path d="M7.15001 25.1572C6.84451 25.1572 6.55153 25.0359 6.33552 24.8198C6.1195 24.6038 5.99815 24.3109 5.99815 24.0054L5.82537 7.11913C5.8115 6.77628 5.86555 6.43406 5.98441 6.11217C6.10327 5.79028 6.2846 5.49506 6.51797 5.24349C6.75133 4.99193 7.03213 4.78899 7.34421 4.64633C7.65629 4.50368 7.99349 4.42413 8.33642 4.41227L19.3827 4.35468C19.7261 4.36067 20.065 4.43426 20.3799 4.57123C20.6948 4.70821 20.9797 4.90588 21.2182 5.15297C21.4568 5.40006 21.6443 5.69172 21.7701 6.01129C21.8959 6.33086 21.9575 6.67208 21.9514 7.01547L22.1126 23.9017C22.1146 24.1035 22.0635 24.3024 21.9645 24.4782C21.8654 24.6541 21.7219 24.8009 21.5482 24.9038C21.3731 25.0049 21.1745 25.0581 20.9723 25.0581C20.7701 25.0581 20.5715 25.0049 20.3964 24.9038L13.8308 21.2639L7.73745 24.9844C7.55702 25.0852 7.35628 25.1443 7.15001 25.1572ZM13.7847 18.7644C13.9849 18.7648 14.1821 18.8121 14.3606 18.9026L19.7859 21.909L19.6477 6.99243C19.6477 6.76206 19.4979 6.6008 19.4058 6.61232L8.34794 6.71598C8.25579 6.71598 8.12908 6.86572 8.12908 7.0961L8.26731 21.9551L13.1973 18.9257C13.3763 18.8231 13.5784 18.7677 13.7847 18.7644Z" fill="white"/>
</svg>
