<svg width="33" height="33" viewBox="0 0 33 33" fill="none" xmlns="http://www.w3.org/2000/svg">
<path d="M11.4933 29.8488C10.8419 29.845 10.2094 29.6295 9.6912 29.2348L6.92801 27.1791C6.29036 26.6819 5.86727 25.9595 5.74562 25.1601C5.62398 24.3607 5.81302 23.5451 6.27393 22.8808C6.51779 22.5207 6.67277 22.1079 6.72615 21.6763C6.77952 21.2447 6.72975 20.8066 6.58095 20.3979L6.50086 20.1843C6.39724 19.8145 6.20786 19.4742 5.9481 19.1913C5.68833 18.9083 5.36549 18.6906 5.0058 18.5558H4.79222C4.01248 18.2936 3.36766 17.7344 2.99776 16.9996C2.62787 16.2648 2.56277 15.4138 2.81661 14.6313L3.9112 11.1606C4.01196 10.7585 4.19748 10.3825 4.45532 10.0579C4.71316 9.73334 5.03737 9.46757 5.40626 9.27843C5.74979 9.10143 6.12566 8.99597 6.51113 8.96844C6.8966 8.9409 7.28364 8.99187 7.64885 9.11825C8.04648 9.25207 8.47079 9.28676 8.88488 9.21929C9.29897 9.15183 9.69032 8.98425 10.0249 8.73113L10.1985 8.59765C10.5013 8.35597 10.7461 8.04942 10.9148 7.70057C11.0834 7.35172 11.1716 6.96947 11.1729 6.58199V6.26162C11.1693 5.44485 11.4885 4.65974 12.0611 4.07721C12.6336 3.49469 13.4131 3.16192 14.2298 3.15137H17.6337C18.0311 3.15244 18.4243 3.232 18.7908 3.38548C19.1573 3.53896 19.4899 3.76334 19.7695 4.04573C20.3572 4.64348 20.6837 5.45005 20.6772 6.28832V6.66208C20.6704 7.03017 20.7503 7.39471 20.9102 7.72628C21.0702 8.05786 21.3059 8.34719 21.5983 8.57095L21.7451 8.67774C22.0447 8.9024 22.3942 9.05129 22.7637 9.11172C23.1333 9.17216 23.512 9.14234 23.8675 9.02481L24.3214 8.87797C24.7059 8.7505 25.1122 8.70179 25.516 8.73473C25.9197 8.76768 26.3127 8.8816 26.6715 9.06971C27.0303 9.25782 27.3475 9.51627 27.6042 9.82963C27.861 10.143 28.052 10.5049 28.1658 10.8936L29.2204 14.2575C29.4644 15.0349 29.3977 15.8766 29.0343 16.6059C28.6709 17.3352 28.0391 17.8953 27.2715 18.1687L27.0045 18.2621C26.6118 18.3907 26.2568 18.6138 25.9705 18.9117C25.6842 19.2096 25.4754 19.5733 25.3626 19.9708C25.2564 20.3403 25.2312 20.7284 25.2888 21.1085C25.3464 21.4886 25.4854 21.8519 25.6963 22.1733L26.0434 22.6806C26.5037 23.3486 26.6909 24.1674 26.5668 24.9691C26.4427 25.7707 26.0167 26.4946 25.376 26.9922L22.6929 29.0612C22.3687 29.3091 21.9972 29.4881 21.6013 29.587C21.2054 29.6859 20.7935 29.7028 20.3908 29.6365C19.9881 29.5702 19.6033 29.4222 19.26 29.2016C18.9167 28.981 18.6222 28.6925 18.3946 28.3538L18.2344 28.1268C18.0158 27.7983 17.7174 27.5305 17.3673 27.3484C17.0172 27.1663 16.6266 27.0759 16.2321 27.0856C15.8556 27.0954 15.4867 27.1935 15.1551 27.372C14.8235 27.5506 14.5386 27.8046 14.3232 28.1135L14.0162 28.554C13.7885 28.8951 13.4934 29.1859 13.149 29.4086C12.8047 29.6313 12.4183 29.7811 12.0139 29.8488C11.8408 29.8658 11.6664 29.8658 11.4933 29.8488ZM5.87347 15.9928C6.62726 16.2616 7.30742 16.7036 7.85922 17.2832C8.41102 17.8629 8.81905 18.5639 9.05046 19.33V19.4902C9.33871 20.2866 9.43335 21.1402 9.32658 21.9804C9.21981 22.8207 8.91469 23.6234 8.43642 24.3224C8.352 24.4157 8.30525 24.537 8.30525 24.6628C8.30525 24.7886 8.352 24.91 8.43642 25.0032L11.3064 27.1791C11.3438 27.2085 11.3871 27.2295 11.4334 27.2408C11.4797 27.2521 11.5278 27.2534 11.5746 27.2445C11.6214 27.2357 11.6657 27.2169 11.7046 27.1895C11.7436 27.1621 11.7762 27.1267 11.8003 27.0856L12.1073 26.6451C12.5704 25.976 13.1888 25.4292 13.9095 25.0515C14.6302 24.6738 15.4317 24.4765 16.2454 24.4765C17.0591 24.4765 17.8607 24.6738 18.5814 25.0515C19.3021 25.4292 19.9205 25.976 20.3835 26.6451L20.5437 26.8854C20.6011 26.9668 20.6868 27.0239 20.784 27.0456C20.8286 27.0522 20.874 27.0496 20.9176 27.0382C20.9612 27.0267 21.002 27.0065 21.0376 26.9788L23.7875 24.8964C23.8837 24.82 23.947 24.7097 23.9644 24.588C23.9818 24.4663 23.9519 24.3426 23.8809 24.2424L23.5338 23.7351C23.0816 23.0757 22.7833 22.3231 22.6608 21.5329C22.5383 20.7428 22.5949 19.9352 22.8263 19.1698C23.0609 18.3654 23.4853 17.6291 24.0637 17.0228C24.6421 16.4165 25.3577 15.958 26.1502 15.6858L26.4172 15.5924C26.5284 15.5478 26.6175 15.461 26.6651 15.351C26.7126 15.241 26.7146 15.1166 26.6708 15.005L25.6296 11.6812C25.6046 11.623 25.568 11.5706 25.5221 11.527C25.4762 11.4834 25.422 11.4496 25.3626 11.4276C25.3233 11.4076 25.2799 11.3973 25.2358 11.3973C25.1917 11.3973 25.1483 11.4076 25.109 11.4276L24.6551 11.5744C23.8874 11.8278 23.0696 11.8909 22.272 11.7584C21.4745 11.6259 20.721 11.3016 20.0765 10.8135L20.0231 10.6934C19.4046 10.225 18.9032 9.61964 18.5581 8.92481C18.213 8.22997 18.0336 7.4646 18.0342 6.68878V6.27497C18.0366 6.14631 17.9887 6.02178 17.9007 5.9279C17.8239 5.8585 17.7239 5.8204 17.6203 5.82111H14.2298C14.1754 5.82451 14.1222 5.83861 14.0733 5.86261C14.0244 5.8866 13.9807 5.92003 13.9447 5.96096C13.9087 6.00189 13.8812 6.04951 13.8637 6.10111C13.8462 6.15271 13.839 6.20725 13.8427 6.26162V6.59534C13.8427 7.39231 13.6598 8.17866 13.3081 8.89379C12.9563 9.60892 12.445 10.2337 11.8136 10.7201L11.6401 10.8536C10.959 11.3722 10.1607 11.7153 9.3157 11.8526C8.47068 11.99 7.60486 11.9173 6.79453 11.6412C6.7339 11.6208 6.66828 11.6208 6.60764 11.6412C6.53231 11.6869 6.47557 11.7578 6.44746 11.8414L5.33952 15.3254C5.3009 15.4441 5.30995 15.5731 5.36475 15.6852C5.41956 15.7973 5.51583 15.8837 5.63319 15.9261L5.87347 15.9928Z" fill="#83A4D4"/>
<path d="M16.0185 21.1721C15.0944 21.1721 14.1912 20.8981 13.4228 20.3847C12.6545 19.8714 12.0557 19.1417 11.7021 18.288C11.3485 17.4343 11.2559 16.4949 11.4362 15.5886C11.6165 14.6823 12.0615 13.8498 12.7149 13.1964C13.3682 12.543 14.2007 12.098 15.107 11.9178C16.0133 11.7375 16.9527 11.83 17.8064 12.1836C18.6601 12.5373 19.3898 13.1361 19.9032 13.9044C20.4165 14.6727 20.6905 15.576 20.6905 16.5001C20.6905 17.7392 20.1983 18.9275 19.3221 19.8037C18.446 20.6799 17.2576 21.1721 16.0185 21.1721ZM16.0185 14.4978C15.6225 14.4978 15.2353 14.6152 14.9061 14.8352C14.5768 15.0552 14.3201 15.3679 14.1686 15.7338C14.017 16.0997 13.9774 16.5023 14.0547 16.8907C14.1319 17.2791 14.3226 17.6359 14.6026 17.9159C14.8827 18.1959 15.2395 18.3866 15.6279 18.4639C16.0163 18.5412 16.4189 18.5015 16.7847 18.35C17.1506 18.1984 17.4633 17.9418 17.6834 17.6125C17.9034 17.2832 18.0208 16.8961 18.0208 16.5001C18.0208 15.969 17.8098 15.4597 17.4343 15.0842C17.0588 14.7087 16.5495 14.4978 16.0185 14.4978Z" fill="#83A4D4"/>
</svg>
