<svg width="29" height="29" viewBox="0 0 29 29" fill="none" xmlns="http://www.w3.org/2000/svg">
<path d="M10.2095 25.8645C9.63851 25.8611 9.08414 25.6722 8.62993 25.3263L6.20798 23.5244C5.64907 23.0886 5.27822 22.4554 5.1716 21.7548C5.06498 21.0541 5.23068 20.3392 5.63466 19.7569C5.84841 19.4413 5.98426 19.0795 6.03104 18.7012C6.07782 18.3229 6.0342 17.9389 5.90377 17.5807L5.83357 17.3935C5.74275 17.0693 5.57676 16.7711 5.34907 16.5231C5.12138 16.275 4.83841 16.0842 4.52314 15.9661H4.33594C3.65249 15.7362 3.0873 15.2461 2.76309 14.602C2.43887 13.958 2.38181 13.2121 2.6043 12.5262L3.56372 9.48413C3.65204 9.13168 3.81464 8.80216 4.04064 8.51764C4.26664 8.23312 4.55082 8.00018 4.87415 7.8344C5.17526 7.67925 5.50471 7.58682 5.84258 7.56269C6.18044 7.53855 6.51969 7.58322 6.83979 7.69399C7.18832 7.81129 7.56022 7.8417 7.92318 7.78256C8.28613 7.72343 8.62916 7.57655 8.92243 7.35469L9.07453 7.23769C9.34001 7.02586 9.55456 6.75716 9.70238 6.45139C9.85021 6.14562 9.92753 5.81058 9.92865 5.47095V5.19014C9.92551 4.47424 10.2053 3.78608 10.7071 3.2755C11.2089 2.76491 11.8922 2.47324 12.608 2.46399H15.5916C15.9399 2.46493 16.2845 2.53466 16.6058 2.66919C16.9271 2.80372 17.2186 3.00039 17.4636 3.24791C17.9788 3.77183 18.2649 4.4788 18.2592 5.21354V5.54115C18.2533 5.86379 18.3233 6.1833 18.4635 6.47393C18.6037 6.76456 18.8103 7.01816 19.0665 7.21429L19.1952 7.30789C19.4578 7.5048 19.7642 7.63531 20.0881 7.68828C20.412 7.74125 20.7439 7.71511 21.0556 7.61209L21.4534 7.48339C21.7904 7.37167 22.1465 7.32897 22.5004 7.35784C22.8543 7.38672 23.1988 7.48657 23.5133 7.65145C23.8277 7.81633 24.1058 8.04286 24.3308 8.31753C24.5558 8.59219 24.7233 8.90936 24.8231 9.25013L25.7474 12.1986C25.9613 12.88 25.9028 13.6178 25.5843 14.257C25.2657 14.8962 24.7119 15.3872 24.0391 15.6268L23.8051 15.7087C23.461 15.8214 23.1497 16.0169 22.8988 16.278C22.6479 16.5391 22.4649 16.8579 22.366 17.2063C22.2729 17.5302 22.2508 17.8703 22.3013 18.2035C22.3518 18.5367 22.4736 18.8551 22.6585 19.1368L22.9627 19.5814C23.3661 20.167 23.5303 20.8846 23.4215 21.5873C23.3127 22.29 22.9393 22.9245 22.3777 23.3606L20.026 25.1741C19.7418 25.3914 19.4162 25.5483 19.0692 25.635C18.7222 25.7217 18.3611 25.7365 18.0082 25.6784C17.6553 25.6203 17.3179 25.4906 17.017 25.2972C16.7161 25.1038 16.458 24.8509 16.2585 24.554L16.1181 24.3551C15.9264 24.0671 15.665 23.8324 15.3581 23.6728C15.0512 23.5132 14.7089 23.434 14.363 23.4425C14.0331 23.4511 13.7097 23.537 13.4191 23.6935C13.1285 23.85 12.8787 24.0727 12.6899 24.3434L12.4208 24.7295C12.2212 25.0285 11.9626 25.2834 11.6607 25.4786C11.3589 25.6738 11.0203 25.8051 10.6658 25.8645C10.514 25.8793 10.3612 25.8793 10.2095 25.8645ZM5.28366 13.7196C5.94436 13.9552 6.54053 14.3426 7.02418 14.8507C7.50784 15.3587 7.86548 15.9732 8.06831 16.6447V16.7851C8.32096 17.4831 8.40392 18.2313 8.31034 18.9678C8.21675 19.7042 7.94931 20.4079 7.5301 21.0206C7.45611 21.1023 7.41513 21.2087 7.41513 21.3189C7.41513 21.4292 7.45611 21.5355 7.5301 21.6173L10.0457 23.5244C10.0785 23.5502 10.1164 23.5687 10.157 23.5785C10.1975 23.5884 10.2397 23.5896 10.2807 23.5818C10.3217 23.574 10.3606 23.5576 10.3947 23.5336C10.4288 23.5095 10.4574 23.4785 10.4786 23.4425L10.7477 23.0564C11.1535 22.47 11.6956 21.9907 12.3273 21.6596C12.959 21.3286 13.6615 21.1556 14.3747 21.1556C15.0879 21.1556 15.7905 21.3286 16.4222 21.6596C17.0539 21.9907 17.5959 22.47 18.0018 23.0564L18.1422 23.267C18.1925 23.3384 18.2676 23.3884 18.3528 23.4074C18.3919 23.4132 18.4318 23.411 18.47 23.4009C18.5082 23.3909 18.5439 23.3732 18.5751 23.3489L20.9854 21.5237C21.0697 21.4567 21.1253 21.36 21.1405 21.2533C21.1557 21.1467 21.1295 21.0383 21.0673 20.9504L20.7631 20.5058C20.3667 19.9278 20.1052 19.2681 19.9979 18.5756C19.8905 17.883 19.9401 17.1751 20.143 16.5043C20.3486 15.7992 20.7205 15.1538 21.2275 14.6224C21.7345 14.091 22.3617 13.6891 23.0563 13.4505L23.2903 13.3686C23.3878 13.3295 23.466 13.2535 23.5076 13.157C23.5493 13.0606 23.5511 12.9516 23.5126 12.8538L22.6 9.94044C22.5781 9.88947 22.5461 9.84348 22.5058 9.80526C22.4656 9.76705 22.418 9.73741 22.366 9.71814C22.3316 9.70066 22.2935 9.69156 22.2549 9.69156C22.2162 9.69156 22.1781 9.70066 22.1437 9.71814L21.7459 9.84684C21.073 10.0689 20.3561 10.1243 19.6571 10.0081C18.958 9.89194 18.2976 9.60773 17.7327 9.17992L17.6859 9.07462C17.1438 8.66409 16.7043 8.13347 16.4018 7.52444C16.0993 6.91542 15.9421 6.24456 15.9426 5.56455V5.20184C15.9447 5.08907 15.9027 4.97993 15.8256 4.89764C15.7583 4.83681 15.6706 4.80341 15.5799 4.80404H12.608C12.5603 4.80701 12.5137 4.81937 12.4709 4.84041C12.428 4.86144 12.3897 4.89074 12.3582 4.92661C12.3266 4.96249 12.3025 5.00423 12.2871 5.04946C12.2718 5.09468 12.2655 5.14249 12.2687 5.19014V5.48265C12.2688 6.1812 12.1085 6.87044 11.8001 7.49726C11.4918 8.12407 11.0437 8.67173 10.4903 9.09802L10.3382 9.21503C9.74113 9.66959 9.04145 9.97031 8.30079 10.0907C7.56013 10.2111 6.80123 10.1474 6.09097 9.90534C6.03783 9.8875 5.98031 9.8875 5.92717 9.90534C5.86114 9.94545 5.81141 10.0076 5.78677 10.0808L4.81565 13.1346C4.7818 13.2386 4.78973 13.3517 4.83777 13.45C4.88581 13.5482 4.97018 13.624 5.07305 13.6611L5.28366 13.7196Z" fill="white"/>
<path d="M14.1757 18.2593C13.3657 18.2593 12.574 18.0191 11.9005 17.5691C11.2271 17.1191 10.7022 16.4796 10.3923 15.7313C10.0823 14.983 10.0012 14.1596 10.1593 13.3653C10.3173 12.5709 10.7073 11.8412 11.28 11.2685C11.8527 10.6958 12.5824 10.3058 13.3767 10.1478C14.1711 9.98977 14.9945 10.0709 15.7428 10.3808C16.4911 10.6908 17.1306 11.2156 17.5806 11.8891C18.0306 12.5625 18.2707 13.3542 18.2707 14.1642C18.2707 15.2503 17.8393 16.2919 17.0713 17.0598C16.3033 17.8278 15.2617 18.2593 14.1757 18.2593ZM14.1757 12.4091C13.8285 12.4091 13.4892 12.5121 13.2006 12.7049C12.912 12.8978 12.687 13.1719 12.5542 13.4926C12.4214 13.8132 12.3866 14.1661 12.4543 14.5066C12.5221 14.847 12.6892 15.1597 12.9347 15.4052C13.1801 15.6506 13.4928 15.8178 13.8333 15.8855C14.1737 15.9532 14.5266 15.9185 14.8473 15.7856C15.168 15.6528 15.4421 15.4278 15.6349 15.1392C15.8278 14.8506 15.9307 14.5113 15.9307 14.1642C15.9307 13.6987 15.7458 13.2523 15.4166 12.9232C15.0875 12.594 14.6411 12.4091 14.1757 12.4091Z" fill="white"/>
</svg>
