<svg width="24" height="25" viewBox="0 0 24 25" fill="none" xmlns="http://www.w3.org/2000/svg">
<mask id="path-1-inside-1_225_1091" fill="white">
<path d="M18.5588 23.8011C18.2124 23.8011 17.8661 23.7117 17.5532 23.5217L13.0728 20.8624C12.6036 20.8513 12.1343 20.8179 11.6874 20.7508C11.3857 20.7061 11.1287 20.5049 11.017 20.2144C10.9053 19.9239 10.9611 19.6111 11.1623 19.3764C11.8997 18.5161 12.2796 17.4882 12.2796 16.3932C12.2796 13.6894 9.8997 11.4883 6.97235 11.4883C5.87739 11.4883 4.82712 11.7901 3.94445 12.3711C3.69865 12.5275 3.39698 12.5498 3.12882 12.4269C2.87184 12.304 2.68191 12.0581 2.64839 11.7676C2.61488 11.4548 2.59253 11.142 2.59253 10.818C2.59253 5.27615 7.39692 0.773438 13.2963 0.773438C19.1956 0.773438 24 5.27615 24 10.818C24 13.8571 22.5922 16.6502 20.1118 18.5608L20.4917 21.6C20.5811 22.3597 20.2459 23.0748 19.609 23.4882C19.2962 23.6893 18.9275 23.8011 18.5588 23.8011ZM13.2851 19.1753C13.4415 19.1641 13.598 19.2089 13.732 19.2983L18.4135 22.0804C18.5364 22.1586 18.637 22.1251 18.704 22.0804C18.7599 22.0469 18.8493 21.9575 18.8269 21.8011L18.3912 18.2703C18.3577 17.9575 18.4917 17.6559 18.7376 17.4771C21.0168 15.8794 22.3241 13.4436 22.3241 10.7956C22.3241 6.18114 18.2795 2.42702 13.2963 2.42702C8.50305 2.42702 4.57014 5.91305 4.27964 10.2929C5.11762 9.96885 6.02264 9.79006 6.96118 9.79006C10.8159 9.79006 13.9443 12.7397 13.9443 16.3709C13.9555 17.3541 13.7209 18.3038 13.2851 19.1753Z"/>
</mask>
<path d="M17.5532 23.5217L18.5912 21.8122L18.5826 21.807L18.574 21.8019L17.5532 23.5217ZM13.0728 20.8624L14.0936 19.1426L13.6436 18.8755L13.1204 18.863L13.0728 20.8624ZM11.6874 20.7508L11.9841 18.7729L11.9805 18.7724L11.6874 20.7508ZM11.1623 19.3764L12.6808 20.678L11.1623 19.3764ZM3.94445 12.3711L5.0182 14.0584L5.0312 14.0501L5.04407 14.0416L3.94445 12.3711ZM3.12882 12.4269L2.26591 14.2312L2.28066 14.2382L2.29551 14.2451L3.12882 12.4269ZM2.64839 11.7676L0.659776 11.9807L0.660643 11.9888L0.661576 11.9969L2.64839 11.7676ZM20.1118 18.5608L18.8914 16.9763L17.9854 17.6742L18.1273 18.8089L20.1118 18.5608ZM20.4917 21.6L22.478 21.3663L22.4772 21.3591L22.4763 21.3519L20.4917 21.6ZM19.6091 23.4882L20.6906 25.1706L20.698 25.1658L19.6091 23.4882ZM13.2851 19.1753L11.4963 18.2809L9.92656 21.4203L13.4276 21.1702L13.2851 19.1753ZM13.732 19.2983L12.6226 20.9624L12.6658 20.9912L12.7103 21.0176L13.732 19.2983ZM18.4135 22.0804L19.4873 20.3931L19.4615 20.3767L19.4353 20.3611L18.4135 22.0804ZM18.704 22.0804L17.675 20.3654L17.6342 20.3899L17.5946 20.4163L18.704 22.0804ZM18.8269 21.8011L16.842 22.0461L16.8443 22.065L16.847 22.0839L18.8269 21.8011ZM18.3912 18.2703L16.4026 18.4834L16.4043 18.4993L16.4063 18.5153L18.3912 18.2703ZM18.7376 17.4771L17.5896 15.8394L17.5753 15.8494L17.5612 15.8597L18.7376 17.4771ZM4.27964 10.2929L2.28403 10.1605L2.07652 13.289L5.00093 12.1583L4.27964 10.2929ZM13.9443 16.3709H11.9443V16.3822L11.9445 16.3936L13.9443 16.3709ZM18.5588 21.8011C18.5578 21.8011 18.5619 21.801 18.5697 21.8031C18.5779 21.8053 18.5857 21.8088 18.5912 21.8122L16.5153 25.2313C17.1564 25.6206 17.8648 25.8011 18.5588 25.8011V21.8011ZM18.574 21.8019L14.0936 19.1426L12.052 22.5823L16.5324 25.2416L18.574 21.8019ZM13.1204 18.863C12.7109 18.8533 12.328 18.8245 11.9841 18.7729L11.3907 22.7287C11.9406 22.8112 12.4962 22.8493 13.0252 22.8619L13.1204 18.863ZM11.9805 18.7724C12.3818 18.8319 12.7328 19.104 12.8837 19.4964L9.15031 20.9324C9.52471 21.9058 10.3896 22.5804 11.3943 22.7292L11.9805 18.7724ZM12.8837 19.4964C13.0384 19.8986 12.9534 20.36 12.6808 20.678L9.64374 18.0748C8.96891 18.8621 8.77219 19.9492 9.15031 20.9324L12.8837 19.4964ZM12.6808 20.678C13.7234 19.4616 14.2796 17.9739 14.2796 16.3932H10.2796C10.2796 17.0025 10.0759 17.5707 9.64374 18.0748L12.6808 20.678ZM14.2796 16.3932C14.2796 12.4397 10.8534 9.48828 6.97235 9.48828V13.4883C8.94604 13.4883 10.2796 14.939 10.2796 16.3932H14.2796ZM6.97235 9.48828C5.5102 9.48828 4.0732 9.89194 2.84483 10.7005L5.04407 14.0416C5.58104 13.6882 6.24459 13.4883 6.97235 13.4883V9.48828ZM2.8707 10.6837C3.19366 10.4782 3.60969 10.4473 3.96213 10.6088L2.29551 14.2451C3.18426 14.6524 4.20364 14.5767 5.0182 14.0584L2.8707 10.6837ZM3.99173 10.6227C4.30609 10.773 4.58382 11.093 4.63521 11.5384L0.661576 11.9969C0.780003 13.0232 1.4376 13.835 2.26591 14.2312L3.99173 10.6227ZM4.63701 11.5545C4.60846 11.2881 4.59253 11.0499 4.59253 10.818H0.592529C0.592529 11.2341 0.621289 11.6215 0.659776 11.9807L4.63701 11.5545ZM4.59253 10.818C4.59253 6.4993 8.37906 2.77344 13.2963 2.77344V-1.22656C6.41479 -1.22656 0.592529 4.053 0.592529 10.818H4.59253ZM13.2963 2.77344C18.2135 2.77344 22 6.4993 22 10.818H26C26 4.053 20.1778 -1.22656 13.2963 -1.22656V2.77344ZM22 10.818C22 13.2114 20.9005 15.4288 18.8914 16.9763L21.3323 20.1452C24.284 17.8717 26 14.5027 26 10.818H22ZM18.1273 18.8089L18.5072 21.848L22.4763 21.3519L22.0964 18.3127L18.1273 18.8089ZM18.5054 21.8337C18.5065 21.8428 18.5056 21.8451 18.5061 21.8419C18.5066 21.8388 18.508 21.8332 18.5112 21.8265C18.5143 21.8198 18.5181 21.8143 18.5213 21.8106C18.5246 21.8069 18.5251 21.8074 18.5201 21.8106L20.698 25.1658C21.977 24.3356 22.6558 22.8776 22.478 21.3663L18.5054 21.8337ZM18.5275 21.8059C18.5292 21.8048 18.5299 21.8045 18.5316 21.804C18.5332 21.8035 18.5418 21.8011 18.5588 21.8011V25.8011C19.325 25.8011 20.0671 25.5714 20.6906 25.1706L18.5275 21.8059ZM13.4276 21.1702C13.1059 21.1932 12.8267 21.0985 12.6226 20.9624L14.8414 17.6342C14.3692 17.3194 13.7772 17.1351 13.1426 17.1804L13.4276 21.1702ZM12.7103 21.0176L17.3918 23.7997L19.4353 20.3611L14.7538 17.579L12.7103 21.0176ZM17.3398 23.7677C17.743 24.0243 18.2321 24.1636 18.7505 24.1192C19.2347 24.0777 19.5969 23.8889 19.8134 23.7445L17.5946 20.4163C17.7442 20.3166 18.0225 20.1669 18.4089 20.1338C18.8296 20.0977 19.207 20.2147 19.4873 20.3931L17.3398 23.7677ZM19.733 23.7954C20.2519 23.484 20.9762 22.7041 20.8068 21.5182L16.847 22.0839C16.793 21.7059 16.8721 21.3179 17.0616 20.9889C17.2315 20.6938 17.4604 20.4942 17.675 20.3654L19.733 23.7954ZM20.8119 21.5561L20.3761 18.0253L16.4063 18.5153L16.842 22.0461L20.8119 21.5561ZM20.3798 18.0572C20.4212 18.4434 20.257 18.8451 19.9139 19.0946L17.5612 15.8597C16.7265 16.4667 16.2942 17.4715 16.4026 18.4834L20.3798 18.0572ZM19.8856 19.1148C22.6667 17.1653 24.3241 14.134 24.3241 10.7956H20.3241C20.3241 12.7531 19.367 14.5935 17.5896 15.8394L19.8856 19.1148ZM24.3241 10.7956C24.3241 4.93719 19.2393 0.427021 13.2963 0.427021V4.42702C17.3196 4.42702 20.3241 7.4251 20.3241 10.7956H24.3241ZM13.2963 0.427021C7.57074 0.427021 2.65195 4.61332 2.28403 10.1605L6.27526 10.4252C6.48833 7.21278 9.43537 4.42702 13.2963 4.42702V0.427021ZM5.00093 12.1583C5.61732 11.9199 6.27825 11.7901 6.96118 11.7901V7.79006C5.76704 7.79006 4.61792 8.01776 3.55835 8.42746L5.00093 12.1583ZM6.96118 11.7901C9.8245 11.7901 11.9443 13.9541 11.9443 16.3709H15.9443C15.9443 11.5252 11.8073 7.79006 6.96118 7.79006V11.7901ZM11.9445 16.3936C11.9518 17.0382 11.7992 17.675 11.4963 18.2809L15.074 20.0697C15.6425 18.9326 15.9592 17.6701 15.9442 16.3482L11.9445 16.3936Z" fill="#386BF6" mask="url(#path-1-inside-1_225_1091)"/>
<mask id="path-3-inside-2_225_1091" fill="white">
<path d="M3.70944 24.7842C3.41894 24.7842 3.13962 24.706 2.88264 24.5384C2.37985 24.2144 2.11171 23.6558 2.17875 23.0636L2.4022 21.3429C0.893841 20.1139 0 18.2927 0 16.3821C0 14.2034 1.13966 12.1699 3.05024 10.952C4.20106 10.2035 5.56416 9.80127 6.98313 9.80127C10.8379 9.80127 13.9663 12.7509 13.9663 16.3821C13.9663 17.857 13.43 19.3095 12.4468 20.4603C11.1842 21.991 9.29595 22.8848 7.21777 22.9519L4.49155 24.5719C4.24574 24.7172 3.97759 24.7842 3.70944 24.7842ZM6.97196 11.4772C5.877 11.4772 4.82673 11.7788 3.94406 12.3598C2.51392 13.276 1.66478 14.7732 1.66478 16.3821C1.66478 17.9352 2.42455 19.3542 3.76532 20.2703C4.0223 20.4491 4.15636 20.7508 4.12284 21.0636L3.87704 22.9742L6.54739 21.3876C6.68146 21.3094 6.82671 21.2647 6.97196 21.2647C8.61439 21.2647 10.1675 20.5608 11.1507 19.3653C11.8881 18.4938 12.2792 17.4659 12.2792 16.371C12.2792 13.6783 9.89932 11.4772 6.97196 11.4772Z"/>
</mask>
<path d="M2.88264 24.5384L3.97519 22.8632L3.96604 22.8573L2.88264 24.5384ZM2.17875 23.0636L0.195403 22.806L0.193289 22.8223L0.191443 22.8386L2.17875 23.0636ZM2.4022 21.3429L4.38554 21.6005L4.52898 20.496L3.66554 19.7925L2.4022 21.3429ZM3.05024 10.952L4.12527 12.6386L4.13305 12.6336L4.14078 12.6286L3.05024 10.952ZM12.4468 20.4603L10.9262 19.1611L10.9149 19.1743L10.9039 19.1877L12.4468 20.4603ZM7.21777 22.9519L7.15328 20.9529L6.63867 20.9695L6.19604 21.2325L7.21777 22.9519ZM4.49155 24.5719L5.50901 26.2938L5.51328 26.2913L4.49155 24.5719ZM3.94406 12.3598L5.02292 14.0439L5.03334 14.0372L5.04368 14.0304L3.94406 12.3598ZM3.76532 20.2703L4.90744 18.6285L4.90059 18.6238L4.8937 18.619L3.76532 20.2703ZM4.12284 21.0636L6.10649 21.3188L6.1092 21.2978L6.11146 21.2767L4.12284 21.0636ZM3.87704 22.9742L1.89338 22.719L1.36958 26.7904L4.89861 24.6936L3.87704 22.9742ZM6.54739 21.3876L5.53964 19.6601L5.53271 19.6641L5.52581 19.6682L6.54739 21.3876ZM11.1507 19.3653L9.62393 18.0734L9.61489 18.0841L9.60601 18.0949L11.1507 19.3653ZM3.70944 22.7842C3.7454 22.7842 3.79282 22.7893 3.8457 22.8048C3.89899 22.8204 3.94313 22.8423 3.97517 22.8632L1.7901 26.2136C2.3813 26.5992 3.04216 26.7842 3.70944 26.7842V22.7842ZM3.96604 22.8573C4.02156 22.8931 4.08074 22.9539 4.12145 23.039C4.16238 23.1246 4.1745 23.2139 4.16605 23.2886L0.191443 22.8386C0.0377807 24.196 0.665501 25.4889 1.79923 26.2196L3.96604 22.8573ZM4.16209 23.3212L4.38554 21.6005L0.418852 21.0854L0.195403 22.806L4.16209 23.3212ZM3.66554 19.7925C2.6029 18.9266 2 17.6656 2 16.3821H-2C-2 18.9198 -0.815221 21.3012 1.13885 22.8934L3.66554 19.7925ZM2 16.3821C2 14.9164 2.76528 13.5055 4.12527 12.6386L1.97522 9.26553C-0.485959 10.8344 -2 13.4903 -2 16.3821H2ZM4.14078 12.6286C4.95983 12.0958 5.94261 11.8013 6.98313 11.8013V7.80127C5.18571 7.80127 3.44229 8.31113 1.95971 9.27552L4.14078 12.6286ZM6.98313 11.8013C9.84646 11.8013 11.9663 13.9653 11.9663 16.3821H15.9663C15.9663 11.5365 11.8293 7.80127 6.98313 7.80127V11.8013ZM11.9663 16.3821C11.9663 17.3739 11.6044 18.3673 10.9262 19.1611L13.9674 21.7594C15.2556 20.2516 15.9663 18.34 15.9663 16.3821H11.9663ZM10.9039 19.1877C10.0302 20.2469 8.69483 20.9032 7.15328 20.9529L7.28225 24.9508C9.89706 24.8665 12.3382 23.7351 13.9897 21.7329L10.9039 19.1877ZM6.19604 21.2325L3.46982 22.8526L5.51328 26.2913L8.23949 24.6712L6.19604 21.2325ZM3.47409 22.8501C3.55268 22.8037 3.63901 22.7842 3.70944 22.7842V26.7842C4.31617 26.7842 4.93881 26.6307 5.50901 26.2938L3.47409 22.8501ZM6.97196 9.47718C5.50996 9.47718 4.07292 9.88065 2.84444 10.6893L5.04368 14.0304C5.58054 13.677 6.24405 13.4772 6.97196 13.4772V9.47718ZM2.86521 10.6758C0.900344 11.9345 -0.335221 14.0462 -0.335221 16.3821H3.66478C3.66478 15.5002 4.12749 14.6175 5.02292 14.0439L2.86521 10.6758ZM-0.335221 16.3821C-0.335221 18.6216 0.772463 20.6476 2.63694 21.9216L4.8937 18.619C4.07665 18.0607 3.66478 17.2487 3.66478 16.3821H-0.335221ZM2.62319 21.9121C2.26482 21.6629 2.09194 21.2452 2.13422 20.8506L6.11146 21.2767C6.22078 20.2564 5.77977 19.2354 4.90744 18.6285L2.62319 21.9121ZM2.13919 20.8084L1.89338 22.719L5.86069 23.2294L6.10649 21.3188L2.13919 20.8084ZM4.89861 24.6936L7.56896 23.1071L5.52581 19.6682L2.85546 21.2548L4.89861 24.6936ZM7.55513 23.1152C7.438 23.1835 7.23916 23.2647 6.97196 23.2647V19.2647C6.41426 19.2647 5.92492 19.4353 5.53964 19.6601L7.55513 23.1152ZM6.97196 23.2647C9.16774 23.2647 11.3047 22.3266 12.6954 20.6357L9.60601 18.0949C9.03022 18.795 8.06104 19.2647 6.97196 19.2647V23.2647ZM12.6775 20.6572C13.7017 19.4467 14.2792 17.9672 14.2792 16.371H10.2792C10.2792 16.9647 10.0745 17.5409 9.62393 18.0734L12.6775 20.6572ZM14.2792 16.371C14.2792 12.4257 10.8499 9.47718 6.97196 9.47718V13.4772C8.94874 13.4772 10.2792 14.9308 10.2792 16.371H14.2792Z" fill="#386BF6" mask="url(#path-3-inside-2_225_1091)"/>
</svg>
