<svg width="25" height="26" viewBox="0 0 25 26" fill="none" xmlns="http://www.w3.org/2000/svg">
<path d="M23.4083 6.75304C22.3881 5.62485 20.6839 5.06076 18.2115 5.06076H17.9234V5.01275C17.9234 2.99641 17.9234 0.5 13.4107 0.5H11.5864C7.07362 0.5 7.07362 3.00842 7.07362 5.01275V5.07276H6.78557C4.30116 5.07276 2.60888 5.63685 1.58871 6.76504C0.400513 8.08526 0.436519 9.86155 0.556539 11.0737L0.568541 11.1577L0.661508 12.1339C0.678623 12.3136 0.775443 12.476 0.926536 12.5749C1.21434 12.7632 1.69604 13.0737 1.98478 13.2341C2.1528 13.3421 2.33283 13.4381 2.51286 13.5341C4.5652 14.6623 6.82158 15.4184 9.11396 15.7905C9.22198 16.9187 9.71406 18.2389 12.3425 18.2389C14.9709 18.2389 15.487 16.9307 15.571 15.7665C18.0194 15.3704 20.3838 14.5183 22.5202 13.2701C22.5922 13.2341 22.6402 13.1981 22.7002 13.1621C23.1763 12.893 23.6703 12.5614 24.1206 12.2366C24.2563 12.1387 24.343 11.9874 24.3615 11.8212L24.3805 11.6498L24.4405 11.0857C24.4525 11.0137 24.4525 10.9537 24.4645 10.8697C24.5605 9.65752 24.5365 8.00124 23.4083 6.75304ZM13.8067 14.9744C13.8067 16.2466 13.8067 16.4386 12.3305 16.4386C10.8542 16.4386 10.8542 16.2106 10.8542 14.9864V13.4741H13.8067V14.9744ZM8.7899 5.06076V5.01275C8.7899 2.97241 8.7899 2.21628 11.5864 2.21628H13.4107C16.2071 2.21628 16.2071 2.98441 16.2071 5.01275V5.07276H8.7899V5.06076Z" fill="#9DB2CE"/>
<path d="M23.147 14.8609C23.5714 14.6589 24.0603 14.9953 24.0178 15.4634L23.5869 20.2087C23.3349 22.6091 22.3507 25.0575 17.0698 25.0575H7.92435C2.64347 25.0575 1.65931 22.6091 1.40727 20.2207L0.99835 15.7226C0.956295 15.2599 1.43393 14.9239 1.85715 15.1154C3.22468 15.7341 5.74887 16.8318 7.30813 17.2403C7.50534 17.2919 7.66483 17.433 7.75119 17.6177C8.47967 19.1757 10.0596 20.0047 12.341 20.0047C14.6001 20.0047 16.1999 19.1438 16.9308 17.582C17.0173 17.3971 17.177 17.256 17.3743 17.2041C19.03 16.7685 21.7168 15.5414 23.147 14.8609Z" fill="#9DB2CE"/>
</svg>
