<svg width="24" height="25" viewBox="0 0 24 25" fill="none" xmlns="http://www.w3.org/2000/svg">
<path d="M11.3983 23.2966C17.6934 23.2966 22.7966 18.1934 22.7966 11.8983C22.7966 5.60318 17.6934 0.5 11.3983 0.5C5.10318 0.5 0 5.60318 0 11.8983C0 18.1934 5.10318 23.2966 11.3983 23.2966Z" fill="#386BF6"/>
<path d="M23.1573 24.4947C22.9413 24.4947 22.7253 24.4107 22.5694 24.2547L20.3377 22.0231C20.0137 21.6991 20.0137 21.1712 20.3377 20.8352C20.6616 20.5113 21.1896 20.5113 21.5255 20.8352L23.7572 23.0669C24.0811 23.3909 24.0811 23.9188 23.7572 24.2547C23.5892 24.4107 23.3732 24.4947 23.1573 24.4947Z" fill="#386BF6"/>
</svg>
