<svg width="24" height="25" viewBox="0 0 24 25" fill="none" xmlns="http://www.w3.org/2000/svg">
<path d="M19.7641 18.2955L20.2321 22.0874C20.3521 23.0834 19.2841 23.7794 18.4321 23.2634L14.2802 20.7915C13.9922 20.6235 13.9202 20.2635 14.0762 19.9755C14.6762 18.8715 15.0002 17.6235 15.0002 16.3756C15.0002 11.9836 11.2323 8.40772 6.60034 8.40772C5.65236 8.40772 4.72837 8.55172 3.86439 8.83971C3.4204 8.98371 2.98841 8.57572 3.09641 8.11973C4.18838 3.75181 8.3883 0.499878 13.4042 0.499878C19.2601 0.499878 24 4.92779 24 10.3877C24 13.6276 22.332 16.4956 19.7641 18.2955Z" fill="#386BF6"/>
<path d="M13.1997 16.3753C13.1997 17.8032 12.6717 19.1232 11.7838 20.1672C10.5958 21.6072 8.71183 22.5312 6.59987 22.5312L3.46793 24.3911C2.93994 24.7151 2.26795 24.2711 2.33995 23.6591L2.63995 21.2952C1.03198 20.1792 0 18.3912 0 16.3753C0 14.2633 1.12798 12.4034 2.85594 11.2994C3.92392 10.6034 5.2079 10.2074 6.59987 10.2074C10.2478 10.2074 13.1997 12.9673 13.1997 16.3753Z" fill="#386BF6"/>
</svg>
