<svg width="24" height="25" viewBox="0 0 24 25" fill="none" xmlns="http://www.w3.org/2000/svg">
<mask id="path-1-inside-1_193_998" fill="white">
<path d="M18.5588 23.5222C18.2124 23.5222 17.8661 23.4329 17.5532 23.2429L13.0728 20.5836C12.6036 20.5725 12.1343 20.539 11.6874 20.472C11.3857 20.4273 11.1287 20.2261 11.017 19.9356C10.9053 19.6451 10.9611 19.3323 11.1623 19.0976C11.8997 18.2373 12.2796 17.2094 12.2796 16.1144C12.2796 13.4106 9.8997 11.2095 6.97235 11.2095C5.87739 11.2095 4.82712 11.5113 3.94445 12.0923C3.69865 12.2487 3.39698 12.271 3.12882 12.1481C2.87184 12.0252 2.68191 11.7793 2.64839 11.4888C2.61488 11.176 2.59253 10.8632 2.59253 10.5392C2.59253 4.99734 7.39692 0.494629 13.2963 0.494629C19.1956 0.494629 24 4.99734 24 10.5392C24 13.5783 22.5922 16.3714 20.1118 18.282L20.4917 21.3212C20.5811 22.0809 20.2459 22.796 19.609 23.2094C19.2962 23.4105 18.9275 23.5222 18.5588 23.5222ZM13.2851 18.8965C13.4415 18.8853 13.598 18.9301 13.732 19.0195L18.4135 21.8016C18.5364 21.8798 18.637 21.8463 18.704 21.8016C18.7599 21.7681 18.8493 21.6787 18.8269 21.5223L18.3912 17.9915C18.3577 17.6786 18.4917 17.3771 18.7376 17.1983C21.0168 15.6006 22.3241 13.1647 22.3241 10.5167C22.3241 5.90233 18.2795 2.14821 13.2963 2.14821C8.50305 2.14821 4.57014 5.63424 4.27964 10.0141C5.11762 9.69004 6.02264 9.51125 6.96118 9.51125C10.8159 9.51125 13.9443 12.4608 13.9443 16.0921C13.9555 17.0753 13.7209 18.025 13.2851 18.8965Z"/>
</mask>
<path d="M17.5532 23.2429L18.5912 21.5333L18.5826 21.5282L18.574 21.5231L17.5532 23.2429ZM13.0728 20.5836L14.0936 18.8638L13.6436 18.5967L13.1204 18.5842L13.0728 20.5836ZM11.6874 20.472L11.9841 18.4941L11.9805 18.4936L11.6874 20.472ZM11.1623 19.0976L12.6808 20.3992L11.1623 19.0976ZM3.94445 12.0922L5.0182 13.7796L5.0312 13.7713L5.04407 13.7628L3.94445 12.0922ZM3.12882 12.1481L2.26591 13.9524L2.28066 13.9594L2.29551 13.9662L3.12882 12.1481ZM2.64839 11.4888L0.659776 11.7019L0.660643 11.71L0.661576 11.718L2.64839 11.4888ZM20.1118 18.282L18.8914 16.6975L17.9854 17.3953L18.1273 18.53L20.1118 18.282ZM20.4917 21.3212L22.478 21.0875L22.4772 21.0803L22.4763 21.0731L20.4917 21.3212ZM19.6091 23.2094L20.6906 24.8918L20.698 24.887L19.6091 23.2094ZM13.2851 18.8965L11.4963 18.0021L9.92656 21.1415L13.4276 20.8914L13.2851 18.8965ZM13.732 19.0195L12.6226 20.6836L12.6658 20.7124L12.7103 20.7388L13.732 19.0195ZM18.4135 21.8016L19.4873 20.1143L19.4615 20.0979L19.4353 20.0823L18.4135 21.8016ZM18.704 21.8016L17.675 20.0866L17.6342 20.1111L17.5946 20.1375L18.704 21.8016ZM18.8269 21.5223L16.842 21.7672L16.8443 21.7862L16.847 21.8051L18.8269 21.5223ZM18.3912 17.9915L16.4026 18.2046L16.4043 18.2205L16.4063 18.2365L18.3912 17.9915ZM18.7376 17.1983L17.5896 15.5606L17.5753 15.5706L17.5612 15.5808L18.7376 17.1983ZM4.27964 10.0141L2.28403 9.8817L2.07652 13.0102L5.00093 11.8795L4.27964 10.0141ZM13.9443 16.0921H11.9443V16.1034L11.9445 16.1148L13.9443 16.0921ZM18.5588 21.5222C18.5578 21.5222 18.5619 21.5222 18.5697 21.5243C18.5779 21.5265 18.5857 21.53 18.5912 21.5333L16.5153 24.9525C17.1564 25.3417 17.8648 25.5222 18.5588 25.5222V21.5222ZM18.574 21.5231L14.0936 18.8638L12.052 22.3035L16.5324 24.9628L18.574 21.5231ZM13.1204 18.5842C12.7109 18.5744 12.328 18.5457 11.9841 18.4941L11.3907 22.4499C11.9406 22.5324 12.4962 22.5705 13.0252 22.5831L13.1204 18.5842ZM11.9805 18.4936C12.3818 18.5531 12.7328 18.8252 12.8837 19.2176L9.15031 20.6536C9.52471 21.627 10.3896 22.3016 11.3943 22.4504L11.9805 18.4936ZM12.8837 19.2176C13.0384 19.6198 12.9534 20.0812 12.6808 20.3992L9.64374 17.796C8.96891 18.5833 8.77219 19.6704 9.15031 20.6536L12.8837 19.2176ZM12.6808 20.3992C13.7234 19.1827 14.2796 17.6951 14.2796 16.1144H10.2796C10.2796 16.7237 10.0759 17.2919 9.64374 17.796L12.6808 20.3992ZM14.2796 16.1144C14.2796 12.1609 10.8534 9.20947 6.97235 9.20947V13.2095C8.94604 13.2095 10.2796 14.6602 10.2796 16.1144H14.2796ZM6.97235 9.20947C5.5102 9.20947 4.0732 9.61313 2.84483 10.4217L5.04407 13.7628C5.58104 13.4094 6.24459 13.2095 6.97235 13.2095V9.20947ZM2.8707 10.4049C3.19366 10.1994 3.60969 10.1684 3.96213 10.33L2.29551 13.9662C3.18426 14.3736 4.20364 14.2979 5.0182 13.7796L2.8707 10.4049ZM3.99173 10.3438C4.30609 10.4942 4.58382 10.8142 4.63521 11.2595L0.661576 11.718C0.780003 12.7444 1.4376 13.5562 2.26591 13.9524L3.99173 10.3438ZM4.63701 11.2757C4.60846 11.0093 4.59253 10.7711 4.59253 10.5392H0.592529C0.592529 10.9553 0.621289 11.3426 0.659776 11.7019L4.63701 11.2757ZM4.59253 10.5392C4.59253 6.22049 8.37906 2.49463 13.2963 2.49463V-1.50537C6.41479 -1.50537 0.592529 3.77419 0.592529 10.5392H4.59253ZM13.2963 2.49463C18.2135 2.49463 22 6.22049 22 10.5392H26C26 3.77419 20.1778 -1.50537 13.2963 -1.50537V2.49463ZM22 10.5392C22 12.9326 20.9005 15.1499 18.8914 16.6975L21.3323 19.8664C24.284 17.5929 26 14.2239 26 10.5392H22ZM18.1273 18.53L18.5072 21.5692L22.4763 21.0731L22.0964 18.0339L18.1273 18.53ZM18.5054 21.5548C18.5065 21.564 18.5056 21.5663 18.5061 21.5631C18.5066 21.56 18.508 21.5544 18.5112 21.5477C18.5143 21.5409 18.5181 21.5355 18.5213 21.5318C18.5246 21.5281 18.5251 21.5286 18.5201 21.5318L20.698 24.887C21.977 24.0567 22.6558 22.5988 22.478 21.0875L18.5054 21.5548ZM18.5275 21.527C18.5292 21.526 18.5299 21.5257 18.5316 21.5252C18.5332 21.5247 18.5418 21.5222 18.5588 21.5222V25.5222C19.325 25.5222 20.0671 25.2926 20.6906 24.8918L18.5275 21.527ZM13.4276 20.8914C13.1059 20.9144 12.8267 20.8197 12.6226 20.6836L14.8414 17.3554C14.3692 17.0406 13.7772 16.8563 13.1426 16.9016L13.4276 20.8914ZM12.7103 20.7388L17.3918 23.5209L19.4353 20.0823L14.7538 17.3002L12.7103 20.7388ZM17.3398 23.4889C17.743 23.7455 18.2321 23.8848 18.7505 23.8404C19.2347 23.7989 19.5969 23.6101 19.8134 23.4657L17.5946 20.1375C17.7442 20.0378 18.0225 19.8881 18.4089 19.855C18.8296 19.8189 19.207 19.9359 19.4873 20.1143L17.3398 23.4889ZM19.733 23.5166C20.2519 23.2052 20.9762 22.4253 20.8068 21.2394L16.847 21.8051C16.793 21.4271 16.8721 21.0391 17.0616 20.7101C17.2315 20.4149 17.4604 20.2154 17.675 20.0866L19.733 23.5166ZM20.8119 21.2773L20.3761 17.7465L16.4063 18.2365L16.842 21.7672L20.8119 21.2773ZM20.3798 17.7784C20.4212 18.1646 20.257 18.5663 19.9139 18.8158L17.5612 15.5808C16.7265 16.1879 16.2942 17.1927 16.4026 18.2046L20.3798 17.7784ZM19.8856 18.836C22.6667 16.8865 24.3241 13.8552 24.3241 10.5167H20.3241C20.3241 12.4743 19.367 14.3147 17.5896 15.5606L19.8856 18.836ZM24.3241 10.5167C24.3241 4.65838 19.2393 0.148212 13.2963 0.148212V4.14821C17.3196 4.14821 20.3241 7.14629 20.3241 10.5167H24.3241ZM13.2963 0.148212C7.57074 0.148212 2.65195 4.33451 2.28403 9.8817L6.27526 10.1464C6.48833 6.93397 9.43537 4.14821 13.2963 4.14821V0.148212ZM5.00093 11.8795C5.61732 11.6411 6.27825 11.5113 6.96118 11.5113V7.51125C5.76704 7.51125 4.61792 7.73895 3.55835 8.14865L5.00093 11.8795ZM6.96118 11.5113C9.8245 11.5113 11.9443 13.6753 11.9443 16.0921H15.9443C15.9443 11.2464 11.8073 7.51125 6.96118 7.51125V11.5113ZM11.9445 16.1148C11.9518 16.7594 11.7992 17.3962 11.4963 18.0021L15.074 19.7909C15.6425 18.6538 15.9592 17.3913 15.9442 16.0694L11.9445 16.1148Z" fill="#9DB2CE" mask="url(#path-1-inside-1_193_998)"/>
<mask id="path-3-inside-2_193_998" fill="white">
<path d="M3.70944 24.5054C3.41894 24.5054 3.13962 24.4272 2.88264 24.2596C2.37985 23.9356 2.11171 23.377 2.17875 22.7848L2.4022 21.0641C0.893841 19.8351 0 18.0139 0 16.1033C0 13.9246 1.13966 11.8911 3.05024 10.6732C4.20106 9.92466 5.56416 9.52246 6.98313 9.52246C10.8379 9.52246 13.9663 12.4721 13.9663 16.1033C13.9663 17.5782 13.43 19.0307 12.4468 20.1815C11.1842 21.7122 9.29595 22.606 7.21777 22.6731L4.49155 24.2931C4.24574 24.4384 3.97759 24.5054 3.70944 24.5054ZM6.97196 11.1984C5.877 11.1984 4.82673 11.5 3.94406 12.081C2.51392 12.9972 1.66478 14.4944 1.66478 16.1033C1.66478 17.6564 2.42455 19.0753 3.76532 19.9915C4.0223 20.1703 4.15636 20.472 4.12284 20.7848L3.87704 22.6954L6.54739 21.1088C6.68146 21.0306 6.82671 20.9859 6.97196 20.9859C8.61439 20.9859 10.1675 20.282 11.1507 19.0865C11.8881 18.215 12.2792 17.1871 12.2792 16.0921C12.2792 13.3995 9.89932 11.1984 6.97196 11.1984Z"/>
</mask>
<path d="M2.88264 24.2596L3.97519 22.5844L3.96604 22.5785L2.88264 24.2596ZM2.17875 22.7848L0.195403 22.5272L0.193289 22.5435L0.191443 22.5598L2.17875 22.7848ZM2.4022 21.0641L4.38554 21.3217L4.52898 20.2172L3.66554 19.5137L2.4022 21.0641ZM3.05024 10.6732L4.12527 12.3597L4.13305 12.3548L4.14078 12.3498L3.05024 10.6732ZM12.4468 20.1815L10.9262 18.8823L10.9149 18.8955L10.9039 18.9089L12.4468 20.1815ZM7.21777 22.6731L7.15328 20.6741L6.63867 20.6907L6.19604 20.9537L7.21777 22.6731ZM4.49155 24.2931L5.50901 26.015L5.51328 26.0125L4.49155 24.2931ZM3.94406 12.081L5.02292 13.7651L5.03334 13.7584L5.04368 13.7516L3.94406 12.081ZM3.76532 19.9915L4.90744 18.3497L4.90059 18.345L4.8937 18.3402L3.76532 19.9915ZM4.12284 20.7848L6.10649 21.04L6.1092 21.019L6.11146 20.9979L4.12284 20.7848ZM3.87704 22.6954L1.89338 22.4402L1.36958 26.5116L4.89861 24.4148L3.87704 22.6954ZM6.54739 21.1088L5.53964 19.3813L5.53271 19.3853L5.52581 19.3894L6.54739 21.1088ZM11.1507 19.0865L9.62393 17.7946L9.61489 17.8053L9.60601 17.8161L11.1507 19.0865ZM3.70944 22.5054C3.7454 22.5054 3.79282 22.5105 3.8457 22.526C3.89899 22.5416 3.94313 22.5635 3.97517 22.5844L1.7901 25.9348C2.3813 26.3204 3.04216 26.5054 3.70944 26.5054V22.5054ZM3.96604 22.5785C4.02156 22.6143 4.08074 22.675 4.12145 22.7602C4.16238 22.8458 4.1745 22.9351 4.16605 23.0098L0.191443 22.5598C0.0377807 23.9172 0.665501 25.2101 1.79923 25.9408L3.96604 22.5785ZM4.16209 23.0423L4.38554 21.3217L0.418852 20.8066L0.195403 22.5272L4.16209 23.0423ZM3.66554 19.5137C2.6029 18.6478 2 17.3868 2 16.1033H-2C-2 18.641 -0.815221 21.0224 1.13885 22.6146L3.66554 19.5137ZM2 16.1033C2 14.6376 2.76528 13.2266 4.12527 12.3597L1.97522 8.98673C-0.485959 10.5555 -2 13.2115 -2 16.1033H2ZM4.14078 12.3498C4.95983 11.817 5.94261 11.5225 6.98313 11.5225V7.52246C5.18571 7.52246 3.44229 8.03233 1.95971 8.99671L4.14078 12.3498ZM6.98313 11.5225C9.84646 11.5225 11.9663 13.6865 11.9663 16.1033H15.9663C15.9663 11.2576 11.8293 7.52246 6.98313 7.52246V11.5225ZM11.9663 16.1033C11.9663 17.0951 11.6044 18.0885 10.9262 18.8823L13.9674 21.4806C15.2556 19.9728 15.9663 18.0612 15.9663 16.1033H11.9663ZM10.9039 18.9089C10.0302 19.9681 8.69483 20.6244 7.15328 20.6741L7.28225 24.672C9.89706 24.5877 12.3382 23.4562 13.9897 21.4541L10.9039 18.9089ZM6.19604 20.9537L3.46982 22.5738L5.51328 26.0125L8.23949 24.3924L6.19604 20.9537ZM3.47409 22.5713C3.55268 22.5248 3.63901 22.5054 3.70944 22.5054V26.5054C4.31617 26.5054 4.93881 26.3519 5.50901 26.015L3.47409 22.5713ZM6.97196 9.19837C5.50996 9.19837 4.07292 9.60184 2.84444 10.4105L5.04368 13.7516C5.58054 13.3982 6.24405 13.1984 6.97196 13.1984V9.19837ZM2.86521 10.397C0.900344 11.6557 -0.335221 13.7674 -0.335221 16.1033H3.66478C3.66478 15.2214 4.12749 14.3387 5.02292 13.7651L2.86521 10.397ZM-0.335221 16.1033C-0.335221 18.3428 0.772463 20.3688 2.63694 21.6428L4.8937 18.3402C4.07665 17.7819 3.66478 16.9699 3.66478 16.1033H-0.335221ZM2.62319 21.6333C2.26482 21.384 2.09194 20.9664 2.13422 20.5717L6.11146 20.9979C6.22078 19.9776 5.77977 18.9566 4.90744 18.3497L2.62319 21.6333ZM2.13919 20.5296L1.89338 22.4402L5.86069 22.9506L6.10649 21.04L2.13919 20.5296ZM4.89861 24.4148L7.56896 22.8282L5.52581 19.3894L2.85546 20.976L4.89861 24.4148ZM7.55513 22.8364C7.438 22.9047 7.23916 22.9859 6.97196 22.9859V18.9859C6.41426 18.9859 5.92492 19.1565 5.53964 19.3813L7.55513 22.8364ZM6.97196 22.9859C9.16774 22.9859 11.3047 22.0478 12.6954 20.3569L9.60601 17.8161C9.03022 18.5162 8.06104 18.9859 6.97196 18.9859V22.9859ZM12.6775 20.3784C13.7017 19.1679 14.2792 17.6884 14.2792 16.0921H10.2792C10.2792 16.6858 10.0745 17.2621 9.62393 17.7946L12.6775 20.3784ZM14.2792 16.0921C14.2792 12.1469 10.8499 9.19837 6.97196 9.19837V13.1984C8.94874 13.1984 10.2792 14.652 10.2792 16.0921H14.2792Z" fill="#9DB2CE" mask="url(#path-3-inside-2_193_998)"/>
</svg>
