<svg width="32" height="33" viewBox="0 0 32 33" fill="none" xmlns="http://www.w3.org/2000/svg">
<path d="M8.00314 28.4062C7.6546 28.4062 7.32034 28.2677 7.07389 28.0213C6.82744 27.7748 6.68899 27.4405 6.68899 27.092L6.49187 7.82662C6.47604 7.43546 6.53771 7.04503 6.67332 6.67778C6.80893 6.31054 7.0158 5.97372 7.28205 5.68672C7.54829 5.39971 7.86865 5.16817 8.2247 5.00542C8.58075 4.84267 8.96546 4.75191 9.35671 4.73838L21.9594 4.67267C22.3511 4.67951 22.7377 4.76347 23.097 4.91974C23.4563 5.07601 23.7814 5.30154 24.0535 5.58344C24.3256 5.86534 24.5396 6.19809 24.6831 6.56269C24.8266 6.92728 24.8969 7.31658 24.8899 7.70835L25.0739 26.9737C25.0762 27.204 25.0179 27.4309 24.9048 27.6315C24.7918 27.8322 24.6281 27.9996 24.43 28.117C24.2302 28.2324 24.0036 28.2931 23.7729 28.2931C23.5422 28.2931 23.3156 28.2324 23.1158 28.117L15.6252 23.9643L8.67335 28.209C8.46749 28.324 8.23847 28.3914 8.00314 28.4062ZM15.5726 21.1126C15.801 21.1131 16.026 21.1671 16.2297 21.2703L22.4193 24.7003L22.2616 7.68206C22.2616 7.41923 22.0908 7.23525 21.9857 7.2484L9.36985 7.36667C9.26472 7.36667 9.12016 7.53751 9.12016 7.80034L9.27786 24.7528L14.9024 21.2966C15.1067 21.1797 15.3373 21.1164 15.5726 21.1126Z" fill="#83A4D4"/>
</svg>
