<svg width="30" height="30" viewBox="0 0 30 30" fill="none" xmlns="http://www.w3.org/2000/svg">
<path d="M15 16.25C15.6904 16.25 16.25 15.6904 16.25 15C16.25 14.3096 15.6904 13.75 15 13.75C14.3096 13.75 13.75 14.3096 13.75 15C13.75 15.6904 14.3096 16.25 15 16.25Z" fill="white"/>
<path d="M20 16.25C20.6904 16.25 21.25 15.6904 21.25 15C21.25 14.3096 20.6904 13.75 20 13.75C19.3096 13.75 18.75 14.3096 18.75 15C18.75 15.6904 19.3096 16.25 20 16.25Z" fill="white"/>
<path d="M10 16.25C10.6904 16.25 11.25 15.6904 11.25 15C11.25 14.3096 10.6904 13.75 10 13.75C9.30964 13.75 8.75 14.3096 8.75 15C8.75 15.6904 9.30964 16.25 10 16.25Z" fill="white"/>
<path d="M23.8375 6.1625C21.7865 4.09812 19.0796 2.81401 16.1833 2.53155C13.287 2.24909 10.383 2.98597 7.97176 4.61516C5.56055 6.24435 3.79332 8.66376 2.97473 11.4563C2.15614 14.2488 2.33749 17.2394 3.48753 19.9125C3.60739 20.161 3.64672 20.4406 3.60003 20.7125L2.50003 26C2.45765 26.2027 2.4663 26.4128 2.52521 26.6113C2.58412 26.8099 2.69144 26.9907 2.83753 27.1375C2.95728 27.2564 3.09987 27.3498 3.25669 27.4121C3.41352 27.4744 3.58133 27.5043 3.75003 27.5H4.00003L9.35003 26.425C9.62194 26.3923 9.89768 26.4311 10.15 26.5375C12.8232 27.6875 15.8138 27.8689 18.6063 27.0503C21.3988 26.2317 23.8182 24.4645 25.4474 22.0533C27.0766 19.6421 27.8134 16.738 27.531 13.8417C27.2485 10.9455 25.9644 8.23848 23.9 6.1875L23.8375 6.1625ZM24.875 16.6125C24.6306 18.105 24.0509 19.5226 23.1795 20.7586C22.308 21.9947 21.1676 23.017 19.844 23.7486C18.5203 24.4802 17.048 24.902 15.5378 24.9824C14.0276 25.0627 12.5188 24.7995 11.125 24.2125C10.6307 24.0022 10.0997 23.8918 9.56253 23.8875C9.32788 23.8891 9.09376 23.91 8.86253 23.95L5.33753 24.6625L6.05003 21.1375C6.19193 20.3741 6.10045 19.5856 5.78753 18.875C5.20052 17.4812 4.93728 15.9724 5.01764 14.4622C5.098 12.952 5.51985 11.4797 6.25145 10.1561C6.98306 8.83244 8.00535 7.692 9.2414 6.82056C10.4774 5.94912 11.895 5.36939 13.3875 5.125C14.9541 4.86789 16.5594 4.98746 18.0706 5.47382C19.5818 5.96018 20.9555 6.79935 22.0781 7.92192C23.2007 9.04448 24.0398 10.4182 24.5262 11.9294C25.0126 13.4406 25.1321 15.0459 24.875 16.6125Z" fill="white"/>
</svg>
