<svg width="25" height="25" viewBox="0 0 25 25" fill="none" xmlns="http://www.w3.org/2000/svg">
<path d="M17.1734 4.95722V5.70722H17.9234H18.2115C20.6 5.70722 22.0467 6.24383 22.8578 7.12045C23.7494 8.08455 23.81 9.40111 23.7186 10.5529C23.7121 10.6021 23.7084 10.6442 23.706 10.6709L23.7054 10.6778C23.7024 10.7119 23.7016 10.717 23.7012 10.7193L23.6973 10.7417L23.6949 10.7643L23.6352 11.3123L23.6349 11.3155L23.6251 11.4017C23.2053 11.6953 22.7596 11.985 22.3376 12.2181L22.3291 12.2228L22.3208 12.2276C22.2967 12.2418 22.2754 12.255 22.2592 12.2652L22.2207 12.2892C22.2031 12.3001 22.1962 12.3037 22.1909 12.3063L22.1692 12.3169L22.1483 12.3289C20.0907 13.5038 17.8126 14.3062 15.4539 14.6791L14.8668 14.7719L14.8231 15.3647C14.7869 15.8541 14.6653 16.2434 14.3841 16.5209C14.107 16.7943 13.5443 17.0862 12.3425 17.0862C11.1432 17.0862 10.5859 16.7927 10.3107 16.5203C10.0287 16.2411 9.90766 15.8529 9.86038 15.3703L9.80387 14.7934L9.23145 14.7027C7.01784 14.3515 4.8423 13.6383 2.86781 12.5775L2.86783 12.5775L2.85952 12.5732C2.67455 12.4768 2.52182 12.3967 2.38376 12.3099L2.36353 12.2972L2.34254 12.2858C2.10143 12.155 1.6914 11.8988 1.3998 11.7131L1.315 10.843L1.31326 10.8251L1.31065 10.8073L1.30108 10.7418C1.18434 9.57542 1.19709 8.15581 2.13981 7.13153C2.9513 6.25499 4.38624 5.71895 6.78557 5.71895H7.07362H7.82362V4.96895V4.91031C7.82362 3.87876 7.84555 3.01949 8.26434 2.3827C8.63063 1.82575 9.45161 1.25 11.5864 1.25H13.4107C15.5467 1.25 16.3672 1.82359 16.733 2.3788C17.1513 3.01378 17.1734 3.87228 17.1734 4.91031V4.95722ZM10.8542 12.4296H10.1042V13.1796V14.6575L10.1042 14.6906C10.1042 14.9617 10.1041 15.2396 10.1328 15.4748C10.1633 15.7249 10.2377 16.0466 10.481 16.3172C10.7281 16.5921 11.0501 16.7054 11.3365 16.76C11.6183 16.8137 11.9554 16.8268 12.3305 16.8268C12.7019 16.8268 13.0369 16.8161 13.3156 16.7664C13.5977 16.7161 13.9246 16.609 14.1763 16.3329C14.4245 16.0608 14.4982 15.7343 14.5283 15.4832C14.5568 15.2455 14.5568 14.9617 14.5567 14.6797L14.5567 14.6458V13.1796V12.4296H13.8067H10.8542ZM16.2071 5.71895H16.9571V4.96895V4.91031V4.87625C16.9572 4.40825 16.9572 3.94986 16.9076 3.55386C16.856 3.141 16.7413 2.70327 16.4424 2.33096C16.1359 1.94915 15.7101 1.72703 15.2145 1.59932C14.7306 1.47459 14.1325 1.42732 13.4107 1.42732H11.5864C10.8651 1.42732 10.2675 1.47379 9.78407 1.59727C9.2892 1.72365 8.86263 1.94412 8.55536 2.3256C8.25568 2.69766 8.14103 3.13577 8.08939 3.54906C8.03984 3.94553 8.03987 4.40533 8.0399 4.87607L8.0399 4.91031V4.95722V4.96895V5.71895H8.7899H16.2071Z" stroke="#9DB2CE" stroke-width="1.5"/>
<path d="M17.5957 17.5424C19.2467 17.1113 21.7906 15.9875 23.2468 15.3153L22.8407 19.6866C22.721 20.7958 22.4407 21.7604 21.6975 22.4669C20.9544 23.1734 19.6107 23.7501 17.0699 23.7501H7.92444C5.38376 23.7501 4.03966 23.1734 3.29641 22.4679C2.55331 21.7626 2.27327 20.8008 2.15361 19.698L1.7691 15.5644C3.15855 16.1743 5.53794 17.1753 7.08669 17.5777C7.98788 19.4339 9.89717 20.312 12.3411 20.312C14.7727 20.312 16.6952 19.3962 17.5957 17.5424ZM1.55385 15.4696L1.55395 15.4697L1.55385 15.4696Z" stroke="#9DB2CE" stroke-width="1.5"/>
</svg>
