<svg width="24" height="25" viewBox="0 0 24 25" fill="none" xmlns="http://www.w3.org/2000/svg">
<mask id="path-1-inside-1_238_1417" fill="white">
<path d="M18.5588 23.8009C18.2124 23.8009 17.8661 23.7115 17.5532 23.5216L13.0728 20.8623C12.6036 20.8511 12.1343 20.8177 11.6874 20.7507C11.3857 20.706 11.1287 20.5048 11.017 20.2143C10.9053 19.9238 10.9611 19.6109 11.1623 19.3763C11.8997 18.516 12.2796 17.4881 12.2796 16.3931C12.2796 13.6892 9.8997 11.4882 6.97235 11.4882C5.87739 11.4882 4.82712 11.7899 3.94445 12.3709C3.69865 12.5274 3.39698 12.5497 3.12882 12.4268C2.87184 12.3039 2.68191 12.058 2.64839 11.7675C2.61488 11.4546 2.59253 11.1419 2.59253 10.8179C2.59253 5.27603 7.39692 0.773315 13.2963 0.773315C19.1956 0.773315 24 5.27603 24 10.8179C24 13.8569 22.5922 16.6501 20.1118 18.5607L20.4917 21.5998C20.5811 22.3596 20.2459 23.0747 19.609 23.4881C19.2962 23.6892 18.9275 23.8009 18.5588 23.8009ZM13.2851 19.1752C13.4415 19.164 13.598 19.2088 13.732 19.2982L18.4135 22.0803C18.5364 22.1585 18.637 22.125 18.704 22.0803C18.7599 22.0468 18.8493 21.9574 18.8269 21.801L18.3912 18.2702C18.3577 17.9573 18.4917 17.6558 18.7376 17.477C21.0168 15.8793 22.3241 13.4434 22.3241 10.7954C22.3241 6.18102 18.2795 2.4269 13.2963 2.4269C8.50305 2.4269 4.57014 5.91292 4.27964 10.2927C5.11762 9.96873 6.02264 9.78994 6.96118 9.78994C10.8159 9.78994 13.9443 12.7395 13.9443 16.3708C13.9555 17.354 13.7209 18.3037 13.2851 19.1752Z"/>
</mask>
<path d="M17.5532 23.5216L18.5912 21.812L18.5826 21.8068L18.574 21.8017L17.5532 23.5216ZM13.0728 20.8623L14.0936 19.1424L13.6436 18.8753L13.1204 18.8629L13.0728 20.8623ZM11.6874 20.7507L11.9841 18.7728L11.9805 18.7723L11.6874 20.7507ZM11.1623 19.3763L12.6808 20.6779L11.1623 19.3763ZM3.94445 12.3709L5.0182 14.0583L5.0312 14.05L5.04407 14.0415L3.94445 12.3709ZM3.12882 12.4268L2.26591 14.2311L2.28066 14.2381L2.29551 14.2449L3.12882 12.4268ZM2.64839 11.7675L0.659776 11.9805L0.660643 11.9886L0.661576 11.9967L2.64839 11.7675ZM20.1118 18.5607L18.8914 16.9762L17.9854 17.674L18.1273 18.8087L20.1118 18.5607ZM20.4917 21.5998L22.478 21.3662L22.4772 21.359L22.4763 21.3518L20.4917 21.5998ZM19.6091 23.4881L20.6906 25.1705L20.698 25.1656L19.6091 23.4881ZM13.2851 19.1752L11.4963 18.2808L9.92656 21.4202L13.4276 21.1701L13.2851 19.1752ZM13.732 19.2982L12.6226 20.9623L12.6658 20.991L12.7103 21.0175L13.732 19.2982ZM18.4135 22.0803L19.4873 20.393L19.4615 20.3766L19.4353 20.361L18.4135 22.0803ZM18.704 22.0803L17.675 20.3653L17.6342 20.3898L17.5946 20.4162L18.704 22.0803ZM18.8269 21.801L16.842 22.0459L16.8443 22.0649L16.847 22.0838L18.8269 21.801ZM18.3912 18.2702L16.4026 18.4832L16.4043 18.4992L16.4063 18.5151L18.3912 18.2702ZM18.7376 17.477L17.5896 15.8393L17.5753 15.8493L17.5612 15.8595L18.7376 17.477ZM4.27964 10.2927L2.28403 10.1604L2.07652 13.2889L5.00093 12.1582L4.27964 10.2927ZM13.9443 16.3708H11.9443V16.3821L11.9445 16.3935L13.9443 16.3708ZM18.5588 21.8009C18.5578 21.8009 18.5619 21.8009 18.5697 21.803C18.5779 21.8052 18.5857 21.8087 18.5912 21.812L16.5153 25.2312C17.1564 25.6204 17.8648 25.8009 18.5588 25.8009V21.8009ZM18.574 21.8017L14.0936 19.1424L12.052 22.5822L16.5324 25.2415L18.574 21.8017ZM13.1204 18.8629C12.7109 18.8531 12.328 18.8244 11.9841 18.7728L11.3907 22.7286C11.9406 22.8111 12.4962 22.8492 13.0252 22.8617L13.1204 18.8629ZM11.9805 18.7723C12.3818 18.8317 12.7328 19.1039 12.8837 19.4963L9.15031 20.9322C9.52471 21.9057 10.3896 22.5803 11.3943 22.7291L11.9805 18.7723ZM12.8837 19.4963C13.0384 19.8984 12.9534 20.3599 12.6808 20.6779L9.64374 18.0747C8.96891 18.862 8.77219 19.9491 9.15031 20.9322L12.8837 19.4963ZM12.6808 20.6779C13.7234 19.4614 14.2796 17.9738 14.2796 16.3931H10.2796C10.2796 17.0023 10.0759 17.5705 9.64374 18.0747L12.6808 20.6779ZM14.2796 16.3931C14.2796 12.4396 10.8534 9.48816 6.97235 9.48816V13.4882C8.94604 13.4882 10.2796 14.9389 10.2796 16.3931H14.2796ZM6.97235 9.48816C5.5102 9.48816 4.0732 9.89181 2.84483 10.7004L5.04407 14.0415C5.58104 13.6881 6.24459 13.4882 6.97235 13.4882V9.48816ZM2.8707 10.6836C3.19366 10.4781 3.60969 10.4471 3.96213 10.6087L2.29551 14.2449C3.18426 14.6523 4.20364 14.5766 5.0182 14.0583L2.8707 10.6836ZM3.99173 10.6225C4.30609 10.7729 4.58382 11.0929 4.63521 11.5382L0.661576 11.9967C0.780003 13.0231 1.4376 13.8349 2.26591 14.2311L3.99173 10.6225ZM4.63701 11.5544C4.60846 11.2879 4.59253 11.0498 4.59253 10.8179H0.592529C0.592529 11.234 0.621289 11.6213 0.659776 11.9805L4.63701 11.5544ZM4.59253 10.8179C4.59253 6.49918 8.37906 2.77332 13.2963 2.77332V-1.22668C6.41479 -1.22668 0.592529 4.05288 0.592529 10.8179H4.59253ZM13.2963 2.77332C18.2135 2.77332 22 6.49917 22 10.8179H26C26 4.05288 20.1778 -1.22668 13.2963 -1.22668V2.77332ZM22 10.8179C22 13.2113 20.9005 15.4286 18.8914 16.9762L21.3323 20.1451C24.284 17.8715 26 14.5026 26 10.8179H22ZM18.1273 18.8087L18.5072 21.8479L22.4763 21.3518L22.0964 18.3126L18.1273 18.8087ZM18.5054 21.8335C18.5065 21.8427 18.5056 21.845 18.5061 21.8418C18.5066 21.8387 18.508 21.8331 18.5112 21.8264C18.5143 21.8196 18.5181 21.8142 18.5213 21.8105C18.5246 21.8068 18.5251 21.8073 18.5201 21.8105L20.698 25.1656C21.977 24.3354 22.6558 22.8775 22.478 21.3662L18.5054 21.8335ZM18.5275 21.8057C18.5292 21.8047 18.5299 21.8043 18.5316 21.8039C18.5332 21.8034 18.5418 21.8009 18.5588 21.8009V25.8009C19.325 25.8009 20.0671 25.5713 20.6906 25.1704L18.5275 21.8057ZM13.4276 21.1701C13.1059 21.1931 12.8267 21.0984 12.6226 20.9623L14.8414 17.6341C14.3692 17.3193 13.7772 17.1349 13.1426 17.1803L13.4276 21.1701ZM12.7103 21.0175L17.3918 23.7996L19.4353 20.361L14.7538 17.5789L12.7103 21.0175ZM17.3398 23.7676C17.743 24.0242 18.2321 24.1635 18.7505 24.1191C19.2347 24.0776 19.5969 23.8888 19.8134 23.7444L17.5946 20.4162C17.7442 20.3165 18.0225 20.1668 18.4089 20.1337C18.8296 20.0976 19.207 20.2146 19.4873 20.393L17.3398 23.7676ZM19.733 23.7953C20.2519 23.4839 20.9762 22.704 20.8068 21.5181L16.847 22.0838C16.793 21.7057 16.8721 21.3178 17.0616 20.9888C17.2315 20.6936 17.4604 20.4941 17.675 20.3653L19.733 23.7953ZM20.8119 21.556L20.3761 18.0252L16.4063 18.5151L16.842 22.0459L20.8119 21.556ZM20.3798 18.0571C20.4212 18.4433 20.257 18.845 19.9139 19.0945L17.5612 15.8595C16.7265 16.4666 16.2942 17.4714 16.4026 18.4832L20.3798 18.0571ZM19.8856 19.1147C22.6667 17.1652 24.3241 14.1339 24.3241 10.7954H20.3241C20.3241 12.753 19.367 14.5933 17.5896 15.8393L19.8856 19.1147ZM24.3241 10.7954C24.3241 4.93706 19.2393 0.426899 13.2963 0.426899V4.4269C17.3196 4.4269 20.3241 7.42498 20.3241 10.7954H24.3241ZM13.2963 0.426899C7.57074 0.426899 2.65195 4.61319 2.28403 10.1604L6.27526 10.4251C6.48833 7.21265 9.43537 4.4269 13.2963 4.4269V0.426899ZM5.00093 12.1582C5.61732 11.9198 6.27825 11.7899 6.96118 11.7899V7.78994C5.76704 7.78994 4.61792 8.01764 3.55835 8.42734L5.00093 12.1582ZM6.96118 11.7899C9.8245 11.7899 11.9443 13.954 11.9443 16.3708H15.9443C15.9443 11.5251 11.8073 7.78994 6.96118 7.78994V11.7899ZM11.9445 16.3935C11.9518 17.038 11.7992 17.6749 11.4963 18.2808L15.074 20.0696C15.6425 18.9325 15.9592 17.6699 15.9442 16.348L11.9445 16.3935Z" fill="#9DB2CE" mask="url(#path-1-inside-1_238_1417)"/>
<mask id="path-3-inside-2_238_1417" fill="white">
<path d="M3.70944 24.7842C3.41894 24.7842 3.13962 24.706 2.88264 24.5384C2.37985 24.2144 2.11171 23.6557 2.17875 23.0635L2.4022 21.3429C0.893841 20.1139 0 18.2927 0 16.3821C0 14.2033 1.13966 12.1698 3.05024 10.952C4.20106 10.2034 5.56416 9.80121 6.98313 9.80121C10.8379 9.80121 13.9663 12.7508 13.9663 16.3821C13.9663 17.8569 13.43 19.3094 12.4468 20.4602C11.1842 21.9909 9.29595 22.8848 7.21777 22.9518L4.49155 24.5719C4.24574 24.7171 3.97759 24.7842 3.70944 24.7842ZM6.97196 11.4771C5.877 11.4771 4.82673 11.7788 3.94406 12.3598C2.51392 13.276 1.66478 14.7732 1.66478 16.3821C1.66478 17.9351 2.42455 19.3541 3.76532 20.2703C4.0223 20.449 4.15636 20.7507 4.12284 21.0636L3.87704 22.9741L6.54739 21.3876C6.68146 21.3094 6.82671 21.2647 6.97196 21.2647C8.61439 21.2647 10.1675 20.5608 11.1507 19.3653C11.8881 18.4938 12.2792 17.4659 12.2792 16.3709C12.2792 13.6782 9.89932 11.4771 6.97196 11.4771Z"/>
</mask>
<path d="M2.88264 24.5384L3.97519 22.8631L3.96604 22.8572L2.88264 24.5384ZM2.17875 23.0635L0.195403 22.806L0.193289 22.8222L0.191443 22.8386L2.17875 23.0635ZM2.4022 21.3429L4.38554 21.6004L4.52898 20.496L3.66554 19.7924L2.4022 21.3429ZM3.05024 10.952L4.12527 12.6385L4.13305 12.6335L4.14078 12.6285L3.05024 10.952ZM12.4468 20.4602L10.9262 19.1611L10.9149 19.1742L10.9039 19.1876L12.4468 20.4602ZM7.21777 22.9518L7.15328 20.9528L6.63867 20.9694L6.19604 21.2325L7.21777 22.9518ZM4.49155 24.5719L5.50901 26.2937L5.51328 26.2912L4.49155 24.5719ZM3.94406 12.3598L5.02292 14.0438L5.03334 14.0372L5.04368 14.0304L3.94406 12.3598ZM3.76532 20.2703L4.90744 18.6285L4.90059 18.6237L4.8937 18.619L3.76532 20.2703ZM4.12284 21.0636L6.10649 21.3188L6.1092 21.2977L6.11146 21.2766L4.12284 21.0636ZM3.87704 22.9741L1.89338 22.7189L1.36958 26.7903L4.89861 24.6936L3.87704 22.9741ZM6.54739 21.3876L5.53964 19.66L5.53271 19.6641L5.52581 19.6682L6.54739 21.3876ZM11.1507 19.3653L9.62393 18.0734L9.61489 18.0841L9.60601 18.0949L11.1507 19.3653ZM3.70944 22.7842C3.7454 22.7842 3.79282 22.7893 3.8457 22.8048C3.89899 22.8204 3.94313 22.8422 3.97517 22.8631L1.7901 26.2136C2.3813 26.5991 3.04216 26.7842 3.70944 26.7842V22.7842ZM3.96604 22.8572C4.02156 22.893 4.08074 22.9538 4.12145 23.039C4.16238 23.1246 4.1745 23.2139 4.16605 23.2885L0.191443 22.8386C0.0377807 24.1959 0.665501 25.4889 1.79923 26.2195L3.96604 22.8572ZM4.16209 23.3211L4.38554 21.6004L0.418852 21.0853L0.195403 22.806L4.16209 23.3211ZM3.66554 19.7924C2.6029 18.9266 2 17.6655 2 16.3821H-2C-2 18.9198 -0.815221 21.3011 1.13885 22.8934L3.66554 19.7924ZM2 16.3821C2 14.9164 2.76528 13.5054 4.12527 12.6385L1.97522 9.26547C-0.485959 10.8343 -2 13.4903 -2 16.3821H2ZM4.14078 12.6285C4.95983 12.0957 5.94261 11.8012 6.98313 11.8012V7.80121C5.18571 7.80121 3.44229 8.31107 1.95971 9.27546L4.14078 12.6285ZM6.98313 11.8012C9.84646 11.8012 11.9663 13.9653 11.9663 16.3821H15.9663C15.9663 11.5364 11.8293 7.80121 6.98313 7.80121V11.8012ZM11.9663 16.3821C11.9663 17.3739 11.6044 18.3672 10.9262 19.1611L13.9674 21.7594C15.2556 20.2516 15.9663 18.34 15.9663 16.3821H11.9663ZM10.9039 19.1876C10.0302 20.2468 8.69483 20.9031 7.15328 20.9528L7.28225 24.9508C9.89706 24.8664 12.3382 23.735 13.9897 21.7328L10.9039 19.1876ZM6.19604 21.2325L3.46982 22.8526L5.51328 26.2912L8.23949 24.6711L6.19604 21.2325ZM3.47409 22.85C3.55268 22.8036 3.63901 22.7842 3.70944 22.7842V26.7842C4.31617 26.7842 4.93881 26.6307 5.50901 26.2937L3.47409 22.85ZM6.97196 9.47712C5.50996 9.47712 4.07292 9.88059 2.84444 10.6892L5.04368 14.0304C5.58054 13.677 6.24405 13.4771 6.97196 13.4771V9.47712ZM2.86521 10.6757C0.900344 11.9345 -0.335221 14.0462 -0.335221 16.3821H3.66478C3.66478 15.5001 4.12749 14.6175 5.02292 14.0438L2.86521 10.6757ZM-0.335221 16.3821C-0.335221 18.6216 0.772463 20.6475 2.63694 21.9216L4.8937 18.619C4.07665 18.0607 3.66478 17.2487 3.66478 16.3821H-0.335221ZM2.62319 21.9121C2.26482 21.6628 2.09194 21.2451 2.13422 20.8505L6.11146 21.2766C6.22078 20.2563 5.77977 19.2353 4.90744 18.6285L2.62319 21.9121ZM2.13919 20.8084L1.89338 22.7189L5.86069 23.2294L6.10649 21.3188L2.13919 20.8084ZM4.89861 24.6936L7.56896 23.107L5.52581 19.6682L2.85546 21.2547L4.89861 24.6936ZM7.55513 23.1151C7.438 23.1835 7.23916 23.2647 6.97196 23.2647V19.2647C6.41426 19.2647 5.92492 19.4353 5.53964 19.66L7.55513 23.1151ZM6.97196 23.2647C9.16774 23.2647 11.3047 22.3266 12.6954 20.6357L9.60601 18.0949C9.03022 18.795 8.06104 19.2647 6.97196 19.2647V23.2647ZM12.6775 20.6571C13.7017 19.4467 14.2792 17.9671 14.2792 16.3709H10.2792C10.2792 16.9646 10.0745 17.5409 9.62393 18.0734L12.6775 20.6571ZM14.2792 16.3709C14.2792 12.4257 10.8499 9.47712 6.97196 9.47712V13.4771C8.94874 13.4771 10.2792 14.9307 10.2792 16.3709H14.2792Z" fill="#9DB2CE" mask="url(#path-3-inside-2_238_1417)"/>
</svg>
