<svg width="81" height="20" viewBox="0 0 81 20" fill="none" xmlns="http://www.w3.org/2000/svg">
<path fill-rule="evenodd" clip-rule="evenodd" d="M42.3083 14.0083C42.75 13.5916 43.3417 13.3333 44 13.3333C45.3833 13.3333 46.5 14.45 46.5 15.8333C46.5 17.2166 45.3833 18.3333 44 18.3333C42.6167 18.3333 41.5 17.2166 41.5 15.8333C41.5 15.6333 41.5333 15.4416 41.575 15.2583L35.7 11.825C35.25 12.2416 34.6583 12.5 34 12.5C32.6167 12.5 31.5 11.3833 31.5 9.99996C31.5 8.61663 32.6167 7.49996 34 7.49996C34.6583 7.49996 35.25 7.75829 35.7 8.17496L41.575 4.74996C41.5333 4.56663 41.5 4.36663 41.5 4.16663C41.5 2.78329 42.6167 1.66663 44 1.66663C45.3833 1.66663 46.5 2.78329 46.5 4.16663C46.5 5.54996 45.3833 6.66663 44 6.66663C43.3417 6.66663 42.7417 6.40829 42.3 5.99163L36.425 9.41663C36.4667 9.60829 36.5 9.79996 36.5 9.99996C36.5 10.2 36.4667 10.3916 36.425 10.5833L42.3083 14.0083ZM44.8333 4.16663C44.8333 3.70829 44.4583 3.33329 44 3.33329C43.5417 3.33329 43.1667 3.70829 43.1667 4.16663C43.1667 4.62496 43.5417 4.99996 44 4.99996C44.4583 4.99996 44.8333 4.62496 44.8333 4.16663ZM34 10.8333C33.5417 10.8333 33.1667 10.4583 33.1667 9.99996C33.1667 9.54163 33.5417 9.16663 34 9.16663C34.4583 9.16663 34.8333 9.54163 34.8333 9.99996C34.8333 10.4583 34.4583 10.8333 34 10.8333ZM43.1667 15.8333C43.1667 16.2916 43.5417 16.6666 44 16.6666C44.4583 16.6666 44.8333 16.2916 44.8333 15.8333C44.8333 15.375 44.4583 15 44 15C43.5417 15 43.1667 15.375 43.1667 15.8333Z" fill="#A6A6A6"/>
<path d="M18.3333 8.11671L12.3417 7.60004L10 2.08337L7.65833 7.60837L1.66666 8.11671L6.21666 12.0584L4.85 17.9167L10 14.8084L15.15 17.9167L13.7917 12.0584L18.3333 8.11671ZM10 13.25L6.86666 15.1417L7.7 11.575L4.93333 9.17504L8.58333 8.85837L10 5.50004L11.425 8.86671L15.075 9.18337L12.3083 11.5834L13.1417 15.15L10 13.25Z" fill="#A6A6A6"/>
<path d="M79.4 2H66.6C65.72 2 65 2.72 65 3.6V18L68.2 14.8H79.4C80.28 14.8 81 14.08 81 13.2V3.6C81 2.72 80.28 2 79.4 2ZM79.4 13.2H68.2L66.6 14.8V3.6H79.4V13.2Z" fill="#A6A6A6"/>
</svg>
