<svg width="27" height="27" viewBox="0 0 27 27" fill="none" xmlns="http://www.w3.org/2000/svg">
<path d="M10.5935 20.1787C10.3862 20.1787 10.1788 20.1023 10.0151 19.9386L7.83225 17.7558C7.60305 17.5266 7.52665 17.1664 7.65762 16.8608C7.78859 16.5552 8.08327 16.3588 8.4107 16.3588H14.9592C15.4066 16.3588 15.7777 16.7298 15.7777 17.1773C15.7777 17.6248 15.4066 17.9959 14.9592 17.9959H10.3862L11.172 18.7817C11.4885 19.0982 11.4885 19.6221 11.172 19.9386C11.0083 20.1023 10.8009 20.1787 10.5935 20.1787Z" fill="white"/>
<path d="M8.41056 17.9958C8.20319 17.9958 7.99582 17.9194 7.83211 17.7557C7.5156 17.4392 7.5156 16.9153 7.83211 16.5988L10.0149 14.416C10.3314 14.0995 10.8553 14.0995 11.1718 14.416C11.4883 14.7325 11.4883 15.2564 11.1718 15.5729L8.989 17.7557C8.82529 17.9194 8.61792 17.9958 8.41056 17.9958Z" fill="white"/>
<path d="M17.1417 25.6357H10.5932C4.66684 25.6357 2.13477 23.1037 2.13477 17.1773V10.6288C2.13477 4.70248 4.66684 2.17041 10.5932 2.17041H16.0503C16.4977 2.17041 16.8688 2.54149 16.8688 2.98897C16.8688 3.43645 16.4977 3.80753 16.0503 3.80753H10.5932C5.5618 3.80753 3.77188 5.59744 3.77188 10.6288V17.1773C3.77188 22.2087 5.5618 23.9986 10.5932 23.9986H17.1417C22.1731 23.9986 23.963 22.2087 23.963 17.1773V11.7203C23.963 11.2728 24.3341 10.9017 24.7815 10.9017C25.229 10.9017 25.6001 11.2728 25.6001 11.7203V17.1773C25.6001 23.1037 23.068 25.6357 17.1417 25.6357Z" fill="white"/>
<path d="M24.7818 12.5388H20.4161C16.6835 12.5388 15.2319 11.0872 15.2319 7.35459V2.98894C15.2319 2.66152 15.4284 2.35593 15.734 2.23587C16.0396 2.1049 16.3888 2.1813 16.6289 2.4105L25.3602 11.1418C25.5894 11.371 25.6658 11.7311 25.5349 12.0367C25.4039 12.3423 25.1092 12.5388 24.7818 12.5388ZM16.869 4.9644V7.35459C16.869 10.1704 17.6003 10.9017 20.4161 10.9017H22.8063L16.869 4.9644Z" fill="white"/>
</svg>
