<svg width="27" height="27" viewBox="0 0 27 27" fill="none" xmlns="http://www.w3.org/2000/svg">
<path d="M13.8674 10.6412C13.7582 10.6412 13.66 10.6194 13.5509 10.5758C13.2453 10.4557 13.0488 10.1501 13.0488 9.82269V2.18282C13.0488 1.73534 13.4199 1.36426 13.8674 1.36426C14.3149 1.36426 14.6859 1.73534 14.6859 2.18282V7.84724L15.4718 7.06142C15.7883 6.74491 16.3121 6.74491 16.6287 7.06142C16.9452 7.37793 16.9452 7.90181 16.6287 8.21832L14.4458 10.4011C14.293 10.5539 14.0857 10.6412 13.8674 10.6412Z" fill="white"/>
<path d="M13.8678 10.6412C13.6604 10.6412 13.4531 10.5648 13.2893 10.4011L11.1065 8.21825C10.79 7.90174 10.79 7.37787 11.1065 7.06136C11.423 6.74485 11.9469 6.74485 12.2634 7.06136L14.4462 9.24418C14.7627 9.56069 14.7627 10.0846 14.4462 10.4011C14.2825 10.5648 14.0752 10.6412 13.8678 10.6412Z" fill="white"/>
<path d="M15.7887 19.3725H11.936C10.79 19.3725 9.76407 18.7395 9.25111 17.7136L7.97416 15.1597C7.9305 15.0614 7.83227 15.0069 7.73405 15.0069H2.93184C2.48436 15.0069 2.11328 14.6358 2.11328 14.1883C2.11328 13.7408 2.48436 13.3698 2.93184 13.3698H7.74496C8.47621 13.3698 9.13105 13.7736 9.45848 14.4284L10.7354 16.9823C10.9646 17.4516 11.4339 17.7354 11.9578 17.7354H15.8105C16.3344 17.7354 16.8037 17.4516 17.0329 16.9823L18.3098 14.4284C18.6372 13.7736 19.2921 13.3698 20.0233 13.3698H24.7819C25.2294 13.3698 25.6004 13.7408 25.6004 14.1883C25.6004 14.6358 25.2294 15.0069 24.7819 15.0069H20.0233C19.9142 15.0069 19.8269 15.0614 19.7832 15.1597L18.5063 17.7136C17.9606 18.7395 16.9346 19.3725 15.7887 19.3725Z" fill="white"/>
<path d="M17.1417 24.8296H10.5932C4.66684 24.8296 2.13477 22.2975 2.13477 16.3712V12.0055C2.13477 6.88679 4.03382 4.32198 8.29032 3.69987C8.74871 3.63439 9.15254 3.93998 9.21802 4.38746C9.28351 4.83494 8.97791 5.24967 8.53043 5.31516C5.1034 5.81721 3.77188 7.69443 3.77188 12.0055V16.3712C3.77188 21.4026 5.5618 23.1925 10.5932 23.1925H17.1417C22.1731 23.1925 23.963 21.4026 23.963 16.3712V12.0055C23.963 7.69443 22.6315 5.81721 19.2044 5.31516C18.757 5.24967 18.4514 4.83494 18.5168 4.38746C18.5823 3.93998 18.9971 3.63439 19.4445 3.69987C23.701 4.32198 25.6001 6.88679 25.6001 12.0055V16.3712C25.6001 22.2975 23.068 24.8296 17.1417 24.8296Z" fill="white"/>
</svg>
