<svg width="20" height="20" viewBox="0 0 20 20" fill="none" xmlns="http://www.w3.org/2000/svg">
<path d="M7.51191 16.7764C7.36554 16.7764 7.21916 16.7224 7.1036 16.6069C6.88018 16.3835 6.88018 16.0137 7.1036 15.7903L12.1267 10.7672C12.4965 10.3974 12.4965 9.79648 12.1267 9.42669L7.1036 4.40363C6.88018 4.18021 6.88018 3.81042 7.1036 3.587C7.32702 3.36358 7.69681 3.36358 7.92023 3.587L12.9433 8.61005C13.3362 9.00296 13.5596 9.53454 13.5596 10.0969C13.5596 10.6593 13.3439 11.1909 12.9433 11.5838L7.92023 16.6069C7.80467 16.7147 7.65829 16.7764 7.51191 16.7764Z" fill="white"/>
</svg>
