<svg width="27" height="27" viewBox="0 0 27 27" fill="none" xmlns="http://www.w3.org/2000/svg">
<path d="M18.554 23.2487H7.63987C2.82675 23.2487 1.36426 21.7862 1.36426 16.9731V16.4274C1.36426 15.9799 1.73534 15.6089 2.18282 15.6089C3.23057 15.6089 4.09278 14.7466 4.09278 13.6989C4.09278 12.6511 3.23057 11.7889 2.18282 11.7889C1.73534 11.7889 1.36426 11.4178 1.36426 10.9704V10.4247C1.36426 5.61154 2.82675 4.14905 7.63987 4.14905H18.554C23.3671 4.14905 24.8296 5.61154 24.8296 10.4247V11.5161C24.8296 11.9635 24.4585 12.3346 24.011 12.3346C22.9633 12.3346 22.1011 13.1968 22.1011 14.2446C22.1011 15.2924 22.9633 16.1546 24.011 16.1546C24.4585 16.1546 24.8296 16.5256 24.8296 16.9731C24.8296 21.7862 23.3671 23.2487 18.554 23.2487ZM3.00137 17.1477C3.0232 20.9022 3.7981 21.6116 7.63987 21.6116H18.554C22.1993 21.6116 23.0833 20.9677 23.1816 17.6935C21.6208 17.3224 20.4639 15.9145 20.4639 14.2446C20.4639 12.5747 21.6318 11.1668 23.1925 10.7957V10.4247C23.1925 6.52832 22.4503 5.78616 18.554 5.78616H7.63987C3.7981 5.78616 3.0232 6.49558 3.00137 10.25C4.56209 10.6211 5.7299 12.029 5.7299 13.6989C5.7299 15.3688 4.56209 16.7767 3.00137 17.1477Z" fill="white"/>
<path d="M16.3714 17.9337C15.7602 17.9337 15.269 17.4425 15.269 16.8423C15.269 16.242 15.7602 15.7509 16.3605 15.7509C16.9607 15.7509 17.4519 16.242 17.4519 16.8423C17.4519 17.4425 16.9826 17.9337 16.3714 17.9337Z" fill="white"/>
<path d="M9.82303 12.4765C9.21184 12.4765 8.7207 11.9854 8.7207 11.3851C8.7207 10.7848 9.21184 10.2937 9.81211 10.2937C10.4124 10.2937 10.9035 10.7848 10.9035 11.3851C10.9035 11.9854 10.4342 12.4765 9.82303 12.4765Z" fill="white"/>
<path d="M9.41886 18.5339C9.21149 18.5339 9.00412 18.4575 8.84041 18.2938C8.5239 17.9773 8.5239 17.4534 8.84041 17.1369L16.1856 9.7917C16.5021 9.47519 17.026 9.47519 17.3425 9.7917C17.659 10.1082 17.659 10.6321 17.3425 10.9486L9.9973 18.2938C9.84451 18.4575 9.62622 18.5339 9.41886 18.5339Z" fill="white"/>
</svg>
