<svg width="34" height="34" viewBox="0 0 34 34" fill="none" xmlns="http://www.w3.org/2000/svg">
<path d="M15.47 27.9791C15.0592 27.9791 14.6625 27.9224 14.3366 27.7949C9.49164 26.1374 1.77081 20.2158 1.77081 11.4608C1.77081 6.96992 5.39747 3.3291 9.85997 3.3291C11.9991 3.3291 13.9966 4.15075 15.4841 5.60991C16.9858 4.15075 18.9691 3.3291 21.1083 3.3291C25.5708 3.3291 29.1975 6.96992 29.1975 11.4608C29.1975 12.0699 29.155 12.6933 29.07 13.3308C29.0275 13.6566 28.8291 13.9541 28.5458 14.1241C28.2625 14.2941 27.9083 14.3083 27.5967 14.1808C25.8542 13.4299 23.6867 13.9966 22.5533 15.5124C22.355 15.7816 21.9725 15.9233 21.7033 15.9374C21.3633 15.9374 21.0516 15.7816 20.8533 15.5124C20.0458 14.4358 18.8133 13.8266 17.4816 13.8266C15.1725 13.8266 13.2883 15.7249 13.2883 18.0624C13.2883 21.7458 15.3992 24.3666 17.1842 25.9391C17.4392 26.1658 17.5667 26.4916 17.5383 26.8316C17.51 27.1716 17.3258 27.4691 17.0283 27.6532C16.8725 27.7382 16.745 27.7949 16.6741 27.8091C16.3058 27.9224 15.895 27.9791 15.47 27.9791ZM9.85997 5.4541C6.5733 5.4541 3.89581 8.14575 3.89581 11.4608C3.89581 18.8699 10.0583 23.4316 13.6 25.1883C12.2542 23.3891 11.1491 21.0091 11.1491 18.0482C11.1491 14.5349 13.9825 11.6874 17.4675 11.6874C19.0541 11.6874 20.5416 12.2683 21.6891 13.3024C23.12 12.0274 25.16 11.4466 27.0583 11.8007C27.0583 11.6874 27.0583 11.5741 27.0583 11.4749C27.0583 8.15994 24.3808 5.46824 21.0942 5.46824C19.21 5.46824 17.4675 6.34658 16.32 7.86241C16.1216 8.13158 15.81 8.28744 15.47 8.28744C15.13 8.28744 14.8183 8.13158 14.62 7.86241C13.5008 6.33241 11.7583 5.4541 9.85997 5.4541Z" fill="#010688"/>
<path d="M21.7035 30.6708C21.3777 30.6708 21.0377 30.6283 20.7685 30.5291C19.5502 30.1183 17.581 29.1125 15.7818 27.5117C13.6852 25.6559 11.1777 22.5108 11.1777 18.0483C11.1777 14.535 14.011 11.6875 17.496 11.6875C19.0827 11.6875 20.5701 12.2684 21.7176 13.3025C23.5026 11.7017 26.2226 11.2483 28.461 12.2258C30.756 13.2458 32.2435 15.5408 32.2435 18.0625C32.2435 24.7775 26.3502 29.2825 22.6385 30.5433C22.3552 30.6283 22.0293 30.6708 21.7035 30.6708ZM17.4818 13.8125C15.1726 13.8125 13.2885 15.7108 13.2885 18.0483C13.2885 21.7317 15.3993 24.3525 17.1843 25.925C18.7568 27.3133 20.4143 28.1775 21.4485 28.5175C21.5618 28.56 21.831 28.56 21.9302 28.5175C24.0552 27.795 30.1043 24.3242 30.1043 18.0483C30.1043 16.3625 29.1127 14.8325 27.5968 14.1667C25.8827 13.4158 23.6868 13.9825 22.5535 15.4983C22.3552 15.7675 21.9727 15.9092 21.7035 15.9233C21.3635 15.9233 21.0518 15.7675 20.8535 15.4983C20.046 14.4217 18.8135 13.8125 17.4818 13.8125Z" fill="#010688"/>
</svg>
