<svg width="34" height="34" viewBox="0 0 34 34" fill="none" xmlns="http://www.w3.org/2000/svg">
<path d="M12.75 25.1458C12.4808 25.1458 12.2117 25.0467 11.9992 24.8342L9.16584 22.0008C8.86834 21.7033 8.76917 21.2358 8.93917 20.8392C9.10917 20.4425 9.49167 20.1875 9.91667 20.1875H18.4167C18.9975 20.1875 19.4792 20.6692 19.4792 21.25C19.4792 21.8308 18.9975 22.3125 18.4167 22.3125H12.4808L13.5008 23.3325C13.9117 23.7433 13.9117 24.4233 13.5008 24.8342C13.2883 25.0467 13.0192 25.1458 12.75 25.1458Z" fill="#010688"/>
<path d="M9.91669 22.3125C9.64752 22.3125 9.37835 22.2133 9.16585 22.0008C8.75502 21.59 8.75502 20.91 9.16585 20.4991L11.9992 17.6658C12.41 17.255 13.09 17.255 13.5009 17.6658C13.9117 18.0766 13.9117 18.7566 13.5009 19.1675L10.6675 22.0008C10.455 22.2133 10.1859 22.3125 9.91669 22.3125Z" fill="#010688"/>
<path d="M21.25 32.2292H12.75C5.05748 32.2292 1.77081 28.9425 1.77081 21.25V12.75C1.77081 5.05754 5.05748 1.77087 12.75 1.77087H19.8333C20.4141 1.77087 20.8958 2.25254 20.8958 2.83337C20.8958 3.41421 20.4141 3.89587 19.8333 3.89587H12.75C6.21915 3.89587 3.89581 6.21921 3.89581 12.75V21.25C3.89581 27.7809 6.21915 30.1042 12.75 30.1042H21.25C27.7808 30.1042 30.1041 27.7809 30.1041 21.25V14.1667C30.1041 13.5859 30.5858 13.1042 31.1666 13.1042C31.7475 13.1042 32.2291 13.5859 32.2291 14.1667V21.25C32.2291 28.9425 28.9425 32.2292 21.25 32.2292Z" fill="#010688"/>
<path d="M31.1666 15.2292H25.5C20.655 15.2292 18.7708 13.345 18.7708 8.50002V2.83336C18.7708 2.40836 19.0258 2.01169 19.4225 1.85586C19.8191 1.68586 20.2725 1.78502 20.5841 2.08252L31.9175 13.4159C32.215 13.7134 32.3141 14.1809 32.1441 14.5775C31.9741 14.9742 31.5916 15.2292 31.1666 15.2292ZM20.8958 5.39752V8.50002C20.8958 12.155 21.845 13.1042 25.5 13.1042H28.6025L20.8958 5.39752Z" fill="#010688"/>
</svg>
