<svg width="20" height="20" viewBox="0 0 20 20" fill="none" xmlns="http://www.w3.org/2000/svg">
<path d="M7.51191 16.5824C7.36554 16.5824 7.21916 16.5285 7.1036 16.4129C6.88018 16.1895 6.88018 15.8197 7.1036 15.5963L12.1267 10.5732C12.4965 10.2034 12.4965 9.60251 12.1267 9.23272L7.1036 4.20966C6.88018 3.98624 6.88018 3.61645 7.1036 3.39303C7.32702 3.16961 7.69681 3.16961 7.92023 3.39303L12.9433 8.41608C13.3362 8.80899 13.5596 9.34057 13.5596 9.90297C13.5596 10.4654 13.3439 10.997 12.9433 11.3899L7.92023 16.4129C7.80467 16.5208 7.65829 16.5824 7.51191 16.5824Z" fill="white"/>
</svg>
