<svg width="27" height="27" viewBox="0 0 27 27" fill="none" xmlns="http://www.w3.org/2000/svg">
<path d="M11.9182 21.7593C11.6017 21.7593 11.2961 21.7157 11.0451 21.6175C7.31244 20.3405 1.36426 15.7784 1.36426 9.03349C1.36426 5.57371 4.15826 2.7688 7.5962 2.7688C9.24423 2.7688 10.7831 3.4018 11.9291 4.52595C13.086 3.4018 14.614 2.7688 16.262 2.7688C19.6999 2.7688 22.494 5.57371 22.494 9.03349C22.494 9.50279 22.4612 9.98302 22.3957 10.4742C22.363 10.7252 22.2102 10.9544 21.9919 11.0853C21.7736 11.2163 21.5008 11.2272 21.2607 11.129C19.9183 10.5506 18.2484 10.9871 17.3753 12.1549C17.2225 12.3623 16.9278 12.4714 16.7204 12.4823C16.4585 12.4823 16.2184 12.3623 16.0656 12.1549C15.4435 11.3255 14.4939 10.8562 13.468 10.8562C11.689 10.8562 10.2374 12.3186 10.2374 14.1195C10.2374 16.9571 11.8636 18.9762 13.2388 20.1877C13.4353 20.3623 13.5335 20.6134 13.5117 20.8753C13.4898 21.1372 13.3479 21.3664 13.1187 21.5083C12.9987 21.5738 12.9005 21.6175 12.8459 21.6284C12.5621 21.7157 12.2456 21.7593 11.9182 21.7593ZM7.5962 4.40592C5.06413 4.40592 3.00137 6.47958 3.00137 9.03349C3.00137 14.7416 7.74902 18.2559 10.4775 19.6093C9.4407 18.2232 8.58939 16.3896 8.58939 14.1085C8.58939 11.4018 10.7722 9.20812 13.4571 9.20812C14.6795 9.20812 15.8254 9.65561 16.7095 10.4523C17.8118 9.47007 19.3835 9.02256 20.8459 9.29541C20.8459 9.2081 20.8459 9.12081 20.8459 9.04441C20.8459 6.49051 18.7832 4.41681 16.2511 4.41681C14.7995 4.41681 13.4571 5.09348 12.573 6.26129C12.4202 6.46866 12.1802 6.58874 11.9182 6.58874C11.6563 6.58874 11.4162 6.46866 11.2634 6.26129C10.4011 5.08257 9.05869 4.40592 7.5962 4.40592Z" fill="white"/>
<path d="M16.7205 23.833C16.4695 23.833 16.2075 23.8003 16.0002 23.7239C15.0616 23.4074 13.5445 22.6325 12.1584 21.3992C10.5431 19.9695 8.61133 17.5465 8.61133 14.1086C8.61133 11.4019 10.7941 9.20813 13.479 9.20813C14.7014 9.20813 15.8474 9.65562 16.7314 10.4524C18.1066 9.21906 20.2021 8.8698 21.9265 9.62287C23.6946 10.4087 24.8406 12.1768 24.8406 14.1195C24.8406 19.2928 20.3003 22.7634 17.4408 23.7348C17.2226 23.8003 16.9715 23.833 16.7205 23.833ZM13.4681 10.8452C11.6891 10.8452 10.2375 12.3077 10.2375 14.1086C10.2375 16.9462 11.8637 18.9653 13.2389 20.1768C14.4504 21.2464 15.7273 21.9122 16.5241 22.1741C16.6114 22.2068 16.8187 22.2068 16.8951 22.1741C18.5322 21.6175 23.1926 18.9435 23.1926 14.1086C23.1926 12.8098 22.4286 11.6311 21.2608 11.1181C19.9402 10.5397 18.2485 10.9762 17.3754 12.144C17.2226 12.3514 16.9279 12.4605 16.7205 12.4714C16.4586 12.4714 16.2184 12.3514 16.0656 12.144C15.4435 11.3146 14.494 10.8452 13.4681 10.8452Z" fill="white"/>
</svg>
