<svg width="20" height="19" viewBox="0 0 20 19" fill="none" xmlns="http://www.w3.org/2000/svg">
<path d="M7.51191 16.3783C7.36554 16.3783 7.21916 16.3244 7.1036 16.2088C6.88018 15.9854 6.88018 15.6156 7.1036 15.3922L12.1267 10.3691C12.4965 9.99933 12.4965 9.39841 12.1267 9.02862L7.1036 4.00556C6.88018 3.78214 6.88018 3.41234 7.1036 3.18893C7.32702 2.96551 7.69681 2.96551 7.92023 3.18893L12.9433 8.21198C13.3362 8.60489 13.5596 9.13647 13.5596 9.69887C13.5596 10.2613 13.3439 10.7928 12.9433 11.1858L7.92023 16.2088C7.80467 16.3167 7.65829 16.3783 7.51191 16.3783Z" fill="white"/>
</svg>
