<svg width="20" height="19" viewBox="0 0 20 19" fill="none" xmlns="http://www.w3.org/2000/svg">
<path d="M7.51191 15.9804C7.36554 15.9804 7.21916 15.9264 7.1036 15.8109C6.88018 15.5874 6.88018 15.2176 7.1036 14.9942L12.1267 9.97118C12.4965 9.60138 12.4965 9.00046 12.1267 8.63067L7.1036 3.60761C6.88018 3.38419 6.88018 3.01439 7.1036 2.79098C7.32702 2.56756 7.69681 2.56756 7.92023 2.79098L12.9433 7.81403C13.3362 8.20694 13.5596 8.73852 13.5596 9.30092C13.5596 9.86332 13.3439 10.3949 12.9433 10.7878L7.92023 15.8109C7.80467 15.9187 7.65829 15.9804 7.51191 15.9804Z" fill="white"/>
</svg>
