<svg width="34" height="34" viewBox="0 0 34 34" fill="none" xmlns="http://www.w3.org/2000/svg">
<path d="M24.0833 29.3958H9.91665C3.66915 29.3958 1.77081 27.4975 1.77081 21.25V20.5416C1.77081 19.9608 2.25248 19.4791 2.83331 19.4791C4.19331 19.4791 5.31248 18.36 5.31248 17C5.31248 15.64 4.19331 14.5208 2.83331 14.5208C2.25248 14.5208 1.77081 14.0391 1.77081 13.4583V12.75C1.77081 6.50246 3.66915 4.60413 9.91665 4.60413H24.0833C30.3308 4.60413 32.2291 6.50246 32.2291 12.75V14.1666C32.2291 14.7475 31.7475 15.2291 31.1666 15.2291C29.8066 15.2291 28.6875 16.3483 28.6875 17.7083C28.6875 19.0683 29.8066 20.1875 31.1666 20.1875C31.7475 20.1875 32.2291 20.6691 32.2291 21.25C32.2291 27.4975 30.3308 29.3958 24.0833 29.3958ZM3.89581 21.4766C3.92415 26.35 4.92998 27.2708 9.91665 27.2708H24.0833C28.815 27.2708 29.9625 26.435 30.09 22.185C28.0641 21.7033 26.5625 19.8758 26.5625 17.7083C26.5625 15.5408 28.0783 13.7133 30.1041 13.2316V12.75C30.1041 7.69246 29.1408 6.72913 24.0833 6.72913H9.91665C4.92998 6.72913 3.92415 7.64996 3.89581 12.5233C5.92165 13.005 7.43748 14.8325 7.43748 17C7.43748 19.1675 5.92165 20.995 3.89581 21.4766Z" fill="#010688"/>
<path d="M21.25 22.4967C20.4567 22.4967 19.8192 21.8592 19.8192 21.08C19.8192 20.3008 20.4567 19.6633 21.2358 19.6633C22.015 19.6633 22.6525 20.3008 22.6525 21.08C22.6525 21.8592 22.0433 22.4967 21.25 22.4967Z" fill="#010688"/>
<path d="M12.75 15.4133C11.9567 15.4133 11.3192 14.7758 11.3192 13.9966C11.3192 13.2175 11.9567 12.58 12.7358 12.58C13.515 12.58 14.1525 13.2175 14.1525 13.9966C14.1525 14.7758 13.5433 15.4133 12.75 15.4133Z" fill="#010688"/>
<path d="M12.2258 23.2759C11.9567 23.2759 11.6875 23.1767 11.475 22.9642C11.0642 22.5534 11.0642 21.8734 11.475 21.4625L21.0092 11.9284C21.42 11.5175 22.1 11.5175 22.5108 11.9284C22.9217 12.3392 22.9217 13.0192 22.5108 13.43L12.9767 22.9642C12.7783 23.1767 12.495 23.2759 12.2258 23.2759Z" fill="#010688"/>
</svg>
