<svg width="34" height="34" viewBox="0 0 34 34" fill="none" xmlns="http://www.w3.org/2000/svg">
<path d="M17 13.8125C16.8583 13.8125 16.7308 13.7842 16.5892 13.7275C16.1925 13.5717 15.9375 13.175 15.9375 12.75V2.83337C15.9375 2.25254 16.4192 1.77087 17 1.77087C17.5808 1.77087 18.0625 2.25254 18.0625 2.83337V10.1859L19.0825 9.16587C19.4933 8.75504 20.1733 8.75504 20.5842 9.16587C20.995 9.57671 20.995 10.2567 20.5842 10.6675L17.7508 13.5009C17.5525 13.6992 17.2833 13.8125 17 13.8125Z" fill="#010688"/>
<path d="M17 13.8125C16.7309 13.8125 16.4617 13.7133 16.2492 13.5008L13.4159 10.6675C13.005 10.2566 13.005 9.57662 13.4159 9.16579C13.8267 8.75496 14.5067 8.75496 14.9175 9.16579L17.7509 11.9991C18.1617 12.41 18.1617 13.09 17.7509 13.5008C17.5384 13.7133 17.2692 13.8125 17 13.8125Z" fill="#010688"/>
<path d="M19.4933 25.1458H14.4925C13.005 25.1458 11.6733 24.3241 11.0075 22.9925L9.34999 19.6775C9.29333 19.55 9.16583 19.4791 9.03833 19.4791H2.80499C2.22416 19.4791 1.74249 18.9975 1.74249 18.4166C1.74249 17.8358 2.22416 17.3541 2.80499 17.3541H9.05249C10.0017 17.3541 10.8517 17.8783 11.2767 18.7283L12.9342 22.0433C13.2317 22.6525 13.8408 23.0208 14.5208 23.0208H19.5217C20.2017 23.0208 20.8108 22.6525 21.1083 22.0433L22.7658 18.7283C23.1908 17.8783 24.0408 17.3541 24.99 17.3541H31.1667C31.7475 17.3541 32.2292 17.8358 32.2292 18.4166C32.2292 18.9975 31.7475 19.4791 31.1667 19.4791H24.99C24.8483 19.4791 24.735 19.55 24.6783 19.6775L23.0208 22.9925C22.3125 24.3241 20.9808 25.1458 19.4933 25.1458Z" fill="#010688"/>
<path d="M21.25 32.2291H12.75C5.05748 32.2291 1.77081 28.9425 1.77081 21.25V15.5833C1.77081 8.93915 4.23581 5.60998 9.76081 4.80248C10.3558 4.71748 10.88 5.11415 10.965 5.69498C11.05 6.27581 10.6533 6.81415 10.0725 6.89915C5.62415 7.55081 3.89581 9.98748 3.89581 15.5833V21.25C3.89581 27.7808 6.21915 30.1041 12.75 30.1041H21.25C27.7808 30.1041 30.1041 27.7808 30.1041 21.25V15.5833C30.1041 9.98748 28.3758 7.55081 23.9275 6.89915C23.3466 6.81415 22.95 6.27581 23.035 5.69498C23.12 5.11415 23.6583 4.71748 24.2391 4.80248C29.7641 5.60998 32.2291 8.93915 32.2291 15.5833V21.25C32.2291 28.9425 28.9425 32.2291 21.25 32.2291Z" fill="#010688"/>
</svg>
